<svg xmlns="http://www.w3.org/2000/svg" width="120" height="148" viewBox="0 0 120 148"><defs><g id="gE" stroke-width="0.51" stroke-linejoin="round"><polygon points="32.96,50.5 50.67,32.79 41.22,10 41.22,10 41.22,10 16.85,34.38"/><polygon points="50.67,32.79 69.28,32.79 78.72,10 41.22,10 41.22,10"/><polygon points="69.28,32.79 83.64,47.16 106.44,37.72 106.44,37.72 106.44,37.72 78.72,10 78.72,10"/><polygon points="83.64,47.16 83.64,56.74 106.44,66.71 106.44,66.71 106.44,37.72 106.44,37.72"/><polygon points="83.64,56.74 13.51,121.62 13.51,131.07 54.01,115.21 106.44,66.71 106.44,66.71 106.44,66.71"/><polygon points="95.04,138 95.04,115.21 54.01,115.21 13.51,131.07 13.51,138"/></g><filter id="gEb" x="-10%" y="-10%" width="120%" height="130%"><feGaussianBlur stdDeviation="1.24"/></filter></defs><defs><filter id="gEd" x="-10%" y="-10%" width="120%" height="140%"><feDropShadow dx="2.67" dy="5.33" stdDeviation="3.56" flood-color="#000" flood-opacity="0.2"/></filter></defs><g filter="url(#gEd)"><use href="#gE" x="0" y="0" fill="#FFF8EC" stroke="#FFF8EC"/></g></svg>
