<svg xmlns="http://www.w3.org/2000/svg" width="862" height="96" viewBox="0 0 862 96"><defs><filter id="hintjoin2crystalss" x="-50%" y="-50%" width="200%" height="200%"><feGaussianBlur stdDeviation="4.28"/></filter><filter id="hintjoin2crystalsh" x="-10%" y="-10%" width="120%" height="120%"><feGaussianBlur stdDeviation="1"/></filter><linearGradient id="hintjoin2crystalsg" x1="5" y1="0" x2="125" y2="0" gradientUnits="userSpaceOnUse"><stop offset="0" stop-color="#fff" stop-opacity="0"/><stop offset="0.25" stop-color="#fff" stop-opacity="0.16"/><stop offset="0.5" stop-color="#fff" stop-opacity="0.5"/><stop offset="0.75" stop-color="#fff" stop-opacity="0.84"/><stop offset="1" stop-color="#fff" stop-opacity="1"/></linearGradient><mask id="hintjoin2crystalsm" maskUnits="userSpaceOnUse" x="-10000" y="-10000" width="20000" height="20000"><rect x="-10000" y="-10000" width="20000" height="20000" fill="url(#hintjoin2crystalsg)"/></mask></defs><mask id="hintjoin2crystalsx" maskUnits="userSpaceOnUse" x="-10000" y="-10000" width="20000" height="20000"><rect x="-10000" y="-10000" width="20000" height="20000" fill="#fff"/><g fill="#000"><polygon points="5,5 27.18,5.23 49.37,5.3 71.55,5.3 93.74,5.07 115.92,5.46 138.11,5.36 160.29,5.17 182.47,4.57 204.66,4.75 226.84,4.64 249.03,4.79 271.21,4.53 293.39,4.58 315.58,5.19 337.76,5.31 359.95,5.48 382.13,4.98 404.32,5.16 426.5,4.54 448.68,4.55 470.87,5.09 493.05,4.56 515.24,4.94 537.42,4.78 559.61,4.55 581.79,5.25 603.97,4.71 626.16,4.65 648.34,4.51 670.53,5.08 692.71,5.06 714.89,5.43 737.08,4.78 759.26,4.56 781.45,5.28 803.63,5.17 825.82,4.59 848,5 847.52,30 847.83,55 848,80 825.82,80.38 803.63,80.13 781.45,79.68 759.26,80.2 737.08,79.68 714.89,79.93 692.71,79.55 670.53,80.07 648.34,80.41 626.16,80.12 603.97,79.72 581.79,79.66 559.61,79.69 537.42,79.62 515.24,79.89 493.05,80 470.87,80.44 448.68,80.45 426.5,79.82 404.32,80.19 382.13,80.42 359.95,79.93 337.76,79.92 315.58,79.68 293.39,80.32 271.21,80.09 249.03,80.18 226.84,80.33 204.66,80.02 182.47,79.89 160.29,80.04 138.11,80.34 115.92,79.92 93.74,80.26 71.55,80.34 49.37,80.22 27.18,79.86 5,80 4.96,55 4.57,30"/></g></mask><g mask="url(#hintjoin2crystalsx)"><g mask="url(#hintjoin2crystalsm)"><polygon points="5,5 27.18,5.23 49.37,5.3 71.55,5.3 93.74,5.07 115.92,5.46 138.11,5.36 160.29,5.17 182.47,4.57 204.66,4.75 226.84,4.64 249.03,4.79 271.21,4.53 293.39,4.58 315.58,5.19 337.76,5.31 359.95,5.48 382.13,4.98 404.32,5.16 426.5,4.54 448.68,4.55 470.87,5.09 493.05,4.56 515.24,4.94 537.42,4.78 559.61,4.55 581.79,5.25 603.97,4.71 626.16,4.65 648.34,4.51 670.53,5.08 692.71,5.06 714.89,5.43 737.08,4.78 759.26,4.56 781.45,5.28 803.63,5.17 825.82,4.59 848,5 847.52,30 847.83,55 848,80 825.82,80.38 803.63,80.13 781.45,79.68 759.26,80.2 737.08,79.68 714.89,79.93 692.71,79.55 670.53,80.07 648.34,80.41 626.16,80.12 603.97,79.72 581.79,79.66 559.61,79.69 537.42,79.62 515.24,79.89 493.05,80 470.87,80.44 448.68,80.45 426.5,79.82 404.32,80.19 382.13,80.42 359.95,79.93 337.76,79.92 315.58,79.68 293.39,80.32 271.21,80.09 249.03,80.18 226.84,80.33 204.66,80.02 182.47,79.89 160.29,80.04 138.11,80.34 115.92,79.92 93.74,80.26 71.55,80.34 49.37,80.22 27.18,79.86 5,80 4.96,55 4.57,30" transform="translate(3.67 3.67)" fill="#000" opacity="0.15" filter="url(#hintjoin2crystalss)"/></g><polygon points="5,5 27.18,5.23 49.37,5.3 71.55,5.3 93.74,5.07 115.92,5.46 138.11,5.36 160.29,5.17 182.47,4.57 204.66,4.75 226.84,4.64 249.03,4.79 271.21,4.53 293.39,4.58 315.58,5.19 337.76,5.31 359.95,5.48 382.13,4.98 404.32,5.16 426.5,4.54 448.68,4.55 470.87,5.09 493.05,4.56 515.24,4.94 537.42,4.78 559.61,4.55 581.79,5.25 603.97,4.71 626.16,4.65 648.34,4.51 670.53,5.08 692.71,5.06 714.89,5.43 737.08,4.78 759.26,4.56 781.45,5.28 803.63,5.17 825.82,4.59 848,5 847.52,30 847.83,55 848,80 825.82,80.38 803.63,80.13 781.45,79.68 759.26,80.2 737.08,79.68 714.89,79.93 692.71,79.55 670.53,80.07 648.34,80.41 626.16,80.12 603.97,79.72 581.79,79.66 559.61,79.69 537.42,79.62 515.24,79.89 493.05,80 470.87,80.44 448.68,80.45 426.5,79.82 404.32,80.19 382.13,80.42 359.95,79.93 337.76,79.92 315.58,79.68 293.39,80.32 271.21,80.09 249.03,80.18 226.84,80.33 204.66,80.02 182.47,79.89 160.29,80.04 138.11,80.34 115.92,79.92 93.74,80.26 71.55,80.34 49.37,80.22 27.18,79.86 5,80 4.96,55 4.57,30" transform="translate(0 -1.2)" fill="#000" opacity="0.04" filter="url(#hintjoin2crystalsh)"/></g><polygon points="5,5 27.18,5.23 49.37,5.3 71.55,5.3 93.74,5.07 115.92,5.46 138.11,5.36 160.29,5.17 182.47,4.57 204.66,4.75 226.84,4.64 249.03,4.79 271.21,4.53 293.39,4.58 315.58,5.19 337.76,5.31 359.95,5.48 382.13,4.98 404.32,5.16 426.5,4.54 448.68,4.55 470.87,5.09 493.05,4.56 515.24,4.94 537.42,4.78 559.61,4.55 581.79,5.25 603.97,4.71 626.16,4.65 648.34,4.51 670.53,5.08 692.71,5.06 714.89,5.43 737.08,4.78 759.26,4.56 781.45,5.28 803.63,5.17 825.82,4.59 848,5 847.52,30 847.83,55 848,80 825.82,80.38 803.63,80.13 781.45,79.68 759.26,80.2 737.08,79.68 714.89,79.93 692.71,79.55 670.53,80.07 648.34,80.41 626.16,80.12 603.97,79.72 581.79,79.66 559.61,79.69 537.42,79.62 515.24,79.89 493.05,80 470.87,80.44 448.68,80.45 426.5,79.82 404.32,80.19 382.13,80.42 359.95,79.93 337.76,79.92 315.58,79.68 293.39,80.32 271.21,80.09 249.03,80.18 226.84,80.33 204.66,80.02 182.47,79.89 160.29,80.04 138.11,80.34 115.92,79.92 93.74,80.26 71.55,80.34 49.37,80.22 27.18,79.86 5,80 4.96,55 4.57,30" fill="#fff" opacity="0.05"/><defs><mask id="hintjoin2crystalssvL" maskUnits="userSpaceOnUse" x="-10000" y="-10000" width="20000" height="20000"><g fill="#fff"><polygon points="5,5 27.18,5.23 49.37,5.3 71.55,5.3 93.74,5.07 115.92,5.46 138.11,5.36 160.29,5.17 182.47,4.57 204.66,4.75 226.84,4.64 249.03,4.79 271.21,4.53 293.39,4.58 315.58,5.19 337.76,5.31 359.95,5.48 382.13,4.98 404.32,5.16 426.5,4.54 448.68,4.55 470.87,5.09 493.05,4.56 515.24,4.94 537.42,4.78 559.61,4.55 581.79,5.25 603.97,4.71 626.16,4.65 648.34,4.51 670.53,5.08 692.71,5.06 714.89,5.43 737.08,4.78 759.26,4.56 781.45,5.28 803.63,5.17 825.82,4.59 848,5 847.52,30 847.83,55 848,80 825.82,80.38 803.63,80.13 781.45,79.68 759.26,80.2 737.08,79.68 714.89,79.93 692.71,79.55 670.53,80.07 648.34,80.41 626.16,80.12 603.97,79.72 581.79,79.66 559.61,79.69 537.42,79.62 515.24,79.89 493.05,80 470.87,80.44 448.68,80.45 426.5,79.82 404.32,80.19 382.13,80.42 359.95,79.93 337.76,79.92 315.58,79.68 293.39,80.32 271.21,80.09 249.03,80.18 226.84,80.33 204.66,80.02 182.47,79.89 160.29,80.04 138.11,80.34 115.92,79.92 93.74,80.26 71.55,80.34 49.37,80.22 27.18,79.86 5,80 4.96,55 4.57,30"/></g><g fill="#000" transform="translate(1.53 1.53)"><polygon points="5,5 27.18,5.23 49.37,5.3 71.55,5.3 93.74,5.07 115.92,5.46 138.11,5.36 160.29,5.17 182.47,4.57 204.66,4.75 226.84,4.64 249.03,4.79 271.21,4.53 293.39,4.58 315.58,5.19 337.76,5.31 359.95,5.48 382.13,4.98 404.32,5.16 426.5,4.54 448.68,4.55 470.87,5.09 493.05,4.56 515.24,4.94 537.42,4.78 559.61,4.55 581.79,5.25 603.97,4.71 626.16,4.65 648.34,4.51 670.53,5.08 692.71,5.06 714.89,5.43 737.08,4.78 759.26,4.56 781.45,5.28 803.63,5.17 825.82,4.59 848,5 847.52,30 847.83,55 848,80 825.82,80.38 803.63,80.13 781.45,79.68 759.26,80.2 737.08,79.68 714.89,79.93 692.71,79.55 670.53,80.07 648.34,80.41 626.16,80.12 603.97,79.72 581.79,79.66 559.61,79.69 537.42,79.62 515.24,79.89 493.05,80 470.87,80.44 448.68,80.45 426.5,79.82 404.32,80.19 382.13,80.42 359.95,79.93 337.76,79.92 315.58,79.68 293.39,80.32 271.21,80.09 249.03,80.18 226.84,80.33 204.66,80.02 182.47,79.89 160.29,80.04 138.11,80.34 115.92,79.92 93.74,80.26 71.55,80.34 49.37,80.22 27.18,79.86 5,80 4.96,55 4.57,30"/></g></mask><mask id="hintjoin2crystalssvD" maskUnits="userSpaceOnUse" x="-10000" y="-10000" width="20000" height="20000"><g fill="#fff"><polygon points="5,5 27.18,5.23 49.37,5.3 71.55,5.3 93.74,5.07 115.92,5.46 138.11,5.36 160.29,5.17 182.47,4.57 204.66,4.75 226.84,4.64 249.03,4.79 271.21,4.53 293.39,4.58 315.58,5.19 337.76,5.31 359.95,5.48 382.13,4.98 404.32,5.16 426.5,4.54 448.68,4.55 470.87,5.09 493.05,4.56 515.24,4.94 537.42,4.78 559.61,4.55 581.79,5.25 603.97,4.71 626.16,4.65 648.34,4.51 670.53,5.08 692.71,5.06 714.89,5.43 737.08,4.78 759.26,4.56 781.45,5.28 803.63,5.17 825.82,4.59 848,5 847.52,30 847.83,55 848,80 825.82,80.38 803.63,80.13 781.45,79.68 759.26,80.2 737.08,79.68 714.89,79.93 692.71,79.55 670.53,80.07 648.34,80.41 626.16,80.12 603.97,79.72 581.79,79.66 559.61,79.69 537.42,79.62 515.24,79.89 493.05,80 470.87,80.44 448.68,80.45 426.5,79.82 404.32,80.19 382.13,80.42 359.95,79.93 337.76,79.92 315.58,79.68 293.39,80.32 271.21,80.09 249.03,80.18 226.84,80.33 204.66,80.02 182.47,79.89 160.29,80.04 138.11,80.34 115.92,79.92 93.74,80.26 71.55,80.34 49.37,80.22 27.18,79.86 5,80 4.96,55 4.57,30"/></g><g fill="#000" transform="translate(-1.53 -1.53)"><polygon points="5,5 27.18,5.23 49.37,5.3 71.55,5.3 93.74,5.07 115.92,5.46 138.11,5.36 160.29,5.17 182.47,4.57 204.66,4.75 226.84,4.64 249.03,4.79 271.21,4.53 293.39,4.58 315.58,5.19 337.76,5.31 359.95,5.48 382.13,4.98 404.32,5.16 426.5,4.54 448.68,4.55 470.87,5.09 493.05,4.56 515.24,4.94 537.42,4.78 559.61,4.55 581.79,5.25 603.97,4.71 626.16,4.65 648.34,4.51 670.53,5.08 692.71,5.06 714.89,5.43 737.08,4.78 759.26,4.56 781.45,5.28 803.63,5.17 825.82,4.59 848,5 847.52,30 847.83,55 848,80 825.82,80.38 803.63,80.13 781.45,79.68 759.26,80.2 737.08,79.68 714.89,79.93 692.71,79.55 670.53,80.07 648.34,80.41 626.16,80.12 603.97,79.72 581.79,79.66 559.61,79.69 537.42,79.62 515.24,79.89 493.05,80 470.87,80.44 448.68,80.45 426.5,79.82 404.32,80.19 382.13,80.42 359.95,79.93 337.76,79.92 315.58,79.68 293.39,80.32 271.21,80.09 249.03,80.18 226.84,80.33 204.66,80.02 182.47,79.89 160.29,80.04 138.11,80.34 115.92,79.92 93.74,80.26 71.55,80.34 49.37,80.22 27.18,79.86 5,80 4.96,55 4.57,30"/></g></mask></defs><rect x="-10000" y="-10000" width="20000" height="20000" fill="#fff" opacity="0.62" mask="url(#hintjoin2crystalssvL)"/><rect x="-10000" y="-10000" width="20000" height="20000" fill="#000" opacity="0.16" mask="url(#hintjoin2crystalssvD)"/><defs><g id="hintjoin2crystalst" stroke-width="0.18" stroke-linejoin="round"><polygon points="53.25,24.42 53.25,51.73 61.09,54.97 61.09,54.97 61.09,24.42 61.09,24.42"/><polygon points="53.25,51.73 48.32,56.66 51.56,64.5 51.56,64.5 61.09,54.97 61.09,54.97 61.09,54.97"/><polygon points="48.32,56.66 44.33,56.66 41.08,64.5 51.56,64.5"/><polygon points="44.33,56.66 38.24,50.58 32.7,56.12 41.08,64.5 41.08,64.5"/><polygon points="76.27,28.34 82.67,28.34 85.92,20.5 73.03,20.5 73.03,20.5"/><polygon points="82.67,28.34 87.61,33.27 95.45,30.03 95.45,30.03 95.45,30.03 85.92,20.5 85.92,20.5"/><polygon points="87.61,33.27 87.61,51.73 95.45,54.97 95.45,54.97 95.45,30.03 95.45,30.03"/><polygon points="87.61,51.73 82.67,56.66 85.92,64.5 85.92,64.5 95.45,54.97 95.45,54.97 95.45,54.97"/><polygon points="82.67,56.66 76.27,56.66 73.03,64.5 85.92,64.5"/><polygon points="76.27,56.66 71.34,51.73 63.5,54.97 63.5,54.97 63.5,54.97 73.03,64.5 73.03,64.5"/><polygon points="71.34,51.73 71.34,33.27 63.5,30.03 63.5,54.97 63.5,54.97"/><polygon points="71.34,33.27 76.27,28.34 73.03,20.5 73.03,20.5 73.03,20.5 63.5,30.03 63.5,30.03"/><polygon points="97.86,24.42 97.86,60.58 97.86,60.58 105.69,60.58 105.69,60.58 105.69,24.42 105.69,24.42 97.86,24.42"/><polygon points="115.94,60.58 115.94,37.36 110.83,20.5 108.1,20.5 108.1,60.58 108.1,60.58"/><polygon points="115.94,37.36 134.03,64.5 137.32,64.5 132.21,47.64 114.12,20.5 110.83,20.5"/><polygon points="140.05,64.5 140.05,24.42 140.05,24.42 132.21,24.42 132.21,47.64 137.32,64.5 140.05,64.5"/><polygon points="169.04,34.42 175.12,28.34 171.88,20.5 171.88,20.5 171.88,20.5 163.5,28.88"/><polygon points="175.12,28.34 181.52,28.34 184.77,20.5 171.88,20.5 171.88,20.5"/><polygon points="181.52,28.34 186.46,33.27 194.29,30.03 194.29,30.03 194.29,30.03 184.77,20.5 184.77,20.5"/><polygon points="186.46,33.27 186.46,36.57 194.29,39.99 194.29,39.99 194.29,30.03 194.29,30.03"/><polygon points="186.46,36.57 162.35,58.87 162.35,62.12 176.27,56.66 194.29,39.99 194.29,39.99 194.29,39.99"/><polygon points="190.38,64.5 190.38,56.66 176.27,56.66 162.35,62.12 162.35,64.5"/><polygon points="247.39,28.88 239.01,20.5 239.01,20.5 239.01,20.5 235.77,28.34 241.85,34.42"/><polygon points="239.01,20.5 226.12,20.5 229.37,28.34 235.77,28.34 239.01,20.5"/><polygon points="226.12,20.5 216.6,30.03 216.6,30.03 216.6,30.03 224.43,33.27 229.37,28.34 226.12,20.5"/><polygon points="216.6,30.03 216.6,54.97 224.43,51.73 224.43,33.27 216.6,30.03"/><polygon points="216.6,54.97 226.12,64.5 226.12,64.5 229.37,56.66 224.43,51.73 216.6,54.97"/><polygon points="239.01,64.5 235.77,56.66 229.37,56.66 226.12,64.5"/><polygon points="239.01,64.5 247.39,56.12 241.85,50.58 235.77,56.66 239.01,64.5"/><polygon points="258.79,60.58 258.79,28.34 250.95,20.5 250.95,20.5 250.95,20.5 250.95,20.5 250.95,60.58 250.95,60.58"/><polygon points="258.79,28.34 270.12,28.34 273.37,20.5 250.95,20.5 250.95,20.5 250.95,20.5 250.95,20.5"/><polygon points="270.12,28.34 275.06,33.27 282.9,30.03 282.9,30.03 282.9,30.03 273.37,20.5 273.37,20.5"/><polygon points="275.06,33.27 275.06,34.25 282.9,37.49 282.9,37.49 282.9,30.03 282.9,30.03"/><polygon points="275.06,34.25 270.12,39.18 273.37,47.02 282.9,37.49 282.9,37.49 282.9,37.49"/><polygon points="270.12,39.18 254.87,39.18 254.87,47.02 273.37,47.02"/><polygon points="264.8,45.17 275.65,62.65 282.31,58.52 271.46,41.04"/><polygon points="286,26.64 302.49,50.62 302.49,36.79 292.45,22.2"/><polygon points="302.49,50.62 318.98,26.64 312.52,22.2 302.49,36.79"/><polygon points="298.57,43.71 298.57,60.58 306.4,60.58 306.4,43.71"/><polygon points="352.87,28.28 345.1,20.5 345.1,20.5 345.1,20.5 341.85,28.34 347.33,33.82"/><polygon points="345.1,20.5 331,20.5 334.25,28.34 341.85,28.34 345.1,20.5"/><polygon points="331,20.5 322.08,29.43 322.08,29.43 322.08,29.43 329.91,32.67 334.25,28.34 331,20.5"/><polygon points="322.08,29.43 322.08,37.49 329.91,34.25 329.91,32.67 322.08,29.43"/><polygon points="322.08,37.49 331,46.42 334.25,38.58 329.91,34.25 322.08,37.49"/><polygon points="331,46.42 341.85,46.42 345.1,38.58 334.25,38.58"/><polygon points="341.85,46.42 346.18,50.75 354.02,47.51 354.02,47.51 354.02,47.51 345.1,38.58"/><polygon points="346.18,50.75 346.18,52.33 354.02,55.57 354.02,55.57 354.02,47.51 354.02,47.51"/><polygon points="346.18,52.33 341.85,56.66 345.1,64.5 345.1,64.5 354.02,55.57 354.02,55.57 354.02,55.57"/><polygon points="341.85,56.66 334.25,56.66 331,64.5 345.1,64.5"/><polygon points="334.25,56.66 328.76,51.18 323.22,56.72 331,64.5 331,64.5"/><polygon points="357.64,28.34 381.75,28.34 381.75,20.5 381.75,20.5 357.64,20.5 357.64,20.5"/><polygon points="365.77,24.42 365.77,60.58 373.61,60.58 373.61,24.42"/><polygon points="390.25,61.93 399.83,35.8 399.83,20.5 397.09,20.5 382.89,59.23"/><polygon points="399.83,35.8 409.41,61.93 416.77,59.23 402.57,20.5 399.83,20.5"/><polygon points="392.6,52.45 407.06,52.45 407.06,44.61 392.6,44.61"/><polygon points="419.42,24.42 419.42,64.5 419.42,64.5 427.25,56.66 427.25,24.42 419.42,24.42"/><polygon points="443.83,64.5 443.83,56.66 427.25,56.66 419.42,64.5"/><polygon points="478.24,28.28 470.47,20.5 470.47,20.5 470.47,20.5 467.22,28.34 472.7,33.82"/><polygon points="470.47,20.5 456.37,20.5 459.62,28.34 467.22,28.34 470.47,20.5"/><polygon points="456.37,20.5 447.45,29.43 447.45,29.43 447.45,29.43 455.28,32.67 459.62,28.34 456.37,20.5"/><polygon points="447.45,29.43 447.45,37.49 455.28,34.25 455.28,32.67 447.45,29.43"/><polygon points="447.45,37.49 456.37,46.42 459.62,38.58 455.28,34.25 447.45,37.49"/><polygon points="456.37,46.42 467.22,46.42 470.47,38.58 459.62,38.58"/><polygon points="467.22,46.42 471.55,50.75 479.39,47.51 479.39,47.51 479.39,47.51 470.47,38.58"/><polygon points="471.55,50.75 471.55,52.33 479.39,55.57 479.39,55.57 479.39,47.51 479.39,47.51"/><polygon points="471.55,52.33 467.22,56.66 470.47,64.5 470.47,64.5 479.39,55.57 479.39,55.57 479.39,55.57"/><polygon points="467.22,56.66 459.62,56.66 456.37,64.5 470.47,64.5"/><polygon points="459.62,56.66 454.13,51.18 448.59,56.72 456.37,64.5 456.37,64.5"/><polygon points="505.61,28.34 529.72,28.34 529.72,20.5 529.72,20.5 505.61,20.5 505.61,20.5"/><polygon points="513.75,24.42 513.75,60.58 521.58,60.58 521.58,24.42"/><polygon points="546.71,28.34 553.11,28.34 556.36,20.5 543.47,20.5 543.47,20.5"/><polygon points="553.11,28.34 558.05,33.27 565.88,30.03 565.88,30.03 565.88,30.03 556.36,20.5 556.36,20.5"/><polygon points="558.05,33.27 558.05,51.73 565.88,54.97 565.88,54.97 565.88,30.03 565.88,30.03"/><polygon points="558.05,51.73 553.11,56.66 556.36,64.5 556.36,64.5 565.88,54.97 565.88,54.97 565.88,54.97"/><polygon points="553.11,56.66 546.71,56.66 543.47,64.5 556.36,64.5"/><polygon points="546.71,56.66 541.77,51.73 533.94,54.97 533.94,54.97 533.94,54.97 543.47,64.5 543.47,64.5"/><polygon points="541.77,51.73 541.77,33.27 533.94,30.03 533.94,54.97 533.94,54.97"/><polygon points="541.77,33.27 546.71,28.34 543.47,20.5 543.47,20.5 543.47,20.5 533.94,30.03 533.94,30.03"/><polygon points="596.02,60.58 596.02,37.5 590.93,20.5 588.18,20.5 588.18,60.58 588.18,60.58"/><polygon points="596.02,37.5 607.17,54.45 607.17,40.19 594.21,20.5 590.93,20.5"/><polygon points="607.17,54.45 618.32,37.5 623.41,20.5 620.13,20.5 607.17,40.19"/><polygon points="618.32,37.5 618.32,60.58 626.16,60.58 626.16,60.58 626.16,20.5 626.16,20.5 623.41,20.5"/><polygon points="636.16,61.93 645.75,35.8 645.75,20.5 643.01,20.5 628.81,59.23"/><polygon points="645.75,35.8 655.33,61.93 662.69,59.23 648.48,20.5 645.75,20.5"/><polygon points="638.51,52.45 652.98,52.45 652.98,44.61 638.51,44.61"/><polygon points="665.34,24.42 665.34,60.58 665.34,60.58 673.17,60.58 673.17,24.42 665.34,24.42"/><polygon points="690.67,21.57 668.37,42.67 673.75,48.36 696.06,27.26"/><polygon points="676.17,40.35 690.04,62.65 696.69,58.51 682.83,36.21"/><polygon points="725.31,20.5 699.69,20.5 699.69,20.5 699.69,20.5 699.69,20.5 707.53,28.34 725.31,28.34 725.31,20.5"/><polygon points="699.69,20.5 699.69,20.5 699.69,64.5 699.69,64.5 707.53,56.66 707.53,28.34 699.69,20.5 699.69,20.5"/><polygon points="725.31,64.5 725.31,56.66 707.53,56.66 699.69,64.5"/><polygon points="703.61,46.42 721.69,46.42 721.69,38.58 703.61,38.58"/></g><filter id="hintjoin2crystalstb" x="-10%" y="-10%" width="120%" height="130%"><feGaussianBlur stdDeviation="0.52"/></filter></defs><defs><mask id="hintjoin2crystalsto" maskUnits="userSpaceOnUse" x="-10000" y="-10000" width="20000" height="20000"><rect x="-10000" y="-10000" width="20000" height="20000" fill="#fff"/><g fill="#000"><polygon points="53.25,24.42 53.25,51.73 61.09,54.97 61.09,54.97 61.09,24.42 61.09,24.42"/><polygon points="53.25,51.73 48.32,56.66 51.56,64.5 51.56,64.5 61.09,54.97 61.09,54.97 61.09,54.97"/><polygon points="48.32,56.66 44.33,56.66 41.08,64.5 51.56,64.5"/><polygon points="44.33,56.66 38.24,50.58 32.7,56.12 41.08,64.5 41.08,64.5"/><polygon points="76.27,28.34 82.67,28.34 85.92,20.5 73.03,20.5 73.03,20.5"/><polygon points="82.67,28.34 87.61,33.27 95.45,30.03 95.45,30.03 95.45,30.03 85.92,20.5 85.92,20.5"/><polygon points="87.61,33.27 87.61,51.73 95.45,54.97 95.45,54.97 95.45,30.03 95.45,30.03"/><polygon points="87.61,51.73 82.67,56.66 85.92,64.5 85.92,64.5 95.45,54.97 95.45,54.97 95.45,54.97"/><polygon points="82.67,56.66 76.27,56.66 73.03,64.5 85.92,64.5"/><polygon points="76.27,56.66 71.34,51.73 63.5,54.97 63.5,54.97 63.5,54.97 73.03,64.5 73.03,64.5"/><polygon points="71.34,51.73 71.34,33.27 63.5,30.03 63.5,54.97 63.5,54.97"/><polygon points="71.34,33.27 76.27,28.34 73.03,20.5 73.03,20.5 73.03,20.5 63.5,30.03 63.5,30.03"/><polygon points="97.86,24.42 97.86,60.58 97.86,60.58 105.69,60.58 105.69,60.58 105.69,24.42 105.69,24.42 97.86,24.42"/><polygon points="115.94,60.58 115.94,37.36 110.83,20.5 108.1,20.5 108.1,60.58 108.1,60.58"/><polygon points="115.94,37.36 134.03,64.5 137.32,64.5 132.21,47.64 114.12,20.5 110.83,20.5"/><polygon points="140.05,64.5 140.05,24.42 140.05,24.42 132.21,24.42 132.21,47.64 137.32,64.5 140.05,64.5"/><polygon points="169.04,34.42 175.12,28.34 171.88,20.5 171.88,20.5 171.88,20.5 163.5,28.88"/><polygon points="175.12,28.34 181.52,28.34 184.77,20.5 171.88,20.5 171.88,20.5"/><polygon points="181.52,28.34 186.46,33.27 194.29,30.03 194.29,30.03 194.29,30.03 184.77,20.5 184.77,20.5"/><polygon points="186.46,33.27 186.46,36.57 194.29,39.99 194.29,39.99 194.29,30.03 194.29,30.03"/><polygon points="186.46,36.57 162.35,58.87 162.35,62.12 176.27,56.66 194.29,39.99 194.29,39.99 194.29,39.99"/><polygon points="190.38,64.5 190.38,56.66 176.27,56.66 162.35,62.12 162.35,64.5"/><polygon points="247.39,28.88 239.01,20.5 239.01,20.5 239.01,20.5 235.77,28.34 241.85,34.42"/><polygon points="239.01,20.5 226.12,20.5 229.37,28.34 235.77,28.34 239.01,20.5"/><polygon points="226.12,20.5 216.6,30.03 216.6,30.03 216.6,30.03 224.43,33.27 229.37,28.34 226.12,20.5"/><polygon points="216.6,30.03 216.6,54.97 224.43,51.73 224.43,33.27 216.6,30.03"/><polygon points="216.6,54.97 226.12,64.5 226.12,64.5 229.37,56.66 224.43,51.73 216.6,54.97"/><polygon points="239.01,64.5 235.77,56.66 229.37,56.66 226.12,64.5"/><polygon points="239.01,64.5 247.39,56.12 241.85,50.58 235.77,56.66 239.01,64.5"/><polygon points="258.79,60.58 258.79,28.34 250.95,20.5 250.95,20.5 250.95,20.5 250.95,20.5 250.95,60.58 250.95,60.58"/><polygon points="258.79,28.34 270.12,28.34 273.37,20.5 250.95,20.5 250.95,20.5 250.95,20.5 250.95,20.5"/><polygon points="270.12,28.34 275.06,33.27 282.9,30.03 282.9,30.03 282.9,30.03 273.37,20.5 273.37,20.5"/><polygon points="275.06,33.27 275.06,34.25 282.9,37.49 282.9,37.49 282.9,30.03 282.9,30.03"/><polygon points="275.06,34.25 270.12,39.18 273.37,47.02 282.9,37.49 282.9,37.49 282.9,37.49"/><polygon points="270.12,39.18 254.87,39.18 254.87,47.02 273.37,47.02"/><polygon points="264.8,45.17 275.65,62.65 282.31,58.52 271.46,41.04"/><polygon points="286,26.64 302.49,50.62 302.49,36.79 292.45,22.2"/><polygon points="302.49,50.62 318.98,26.64 312.52,22.2 302.49,36.79"/><polygon points="298.57,43.71 298.57,60.58 306.4,60.58 306.4,43.71"/><polygon points="352.87,28.28 345.1,20.5 345.1,20.5 345.1,20.5 341.85,28.34 347.33,33.82"/><polygon points="345.1,20.5 331,20.5 334.25,28.34 341.85,28.34 345.1,20.5"/><polygon points="331,20.5 322.08,29.43 322.08,29.43 322.08,29.43 329.91,32.67 334.25,28.34 331,20.5"/><polygon points="322.08,29.43 322.08,37.49 329.91,34.25 329.91,32.67 322.08,29.43"/><polygon points="322.08,37.49 331,46.42 334.25,38.58 329.91,34.25 322.08,37.49"/><polygon points="331,46.42 341.85,46.42 345.1,38.58 334.25,38.58"/><polygon points="341.85,46.42 346.18,50.75 354.02,47.51 354.02,47.51 354.02,47.51 345.1,38.58"/><polygon points="346.18,50.75 346.18,52.33 354.02,55.57 354.02,55.57 354.02,47.51 354.02,47.51"/><polygon points="346.18,52.33 341.85,56.66 345.1,64.5 345.1,64.5 354.02,55.57 354.02,55.57 354.02,55.57"/><polygon points="341.85,56.66 334.25,56.66 331,64.5 345.1,64.5"/><polygon points="334.25,56.66 328.76,51.18 323.22,56.72 331,64.5 331,64.5"/><polygon points="357.64,28.34 381.75,28.34 381.75,20.5 381.75,20.5 357.64,20.5 357.64,20.5"/><polygon points="365.77,24.42 365.77,60.58 373.61,60.58 373.61,24.42"/><polygon points="390.25,61.93 399.83,35.8 399.83,20.5 397.09,20.5 382.89,59.23"/><polygon points="399.83,35.8 409.41,61.93 416.77,59.23 402.57,20.5 399.83,20.5"/><polygon points="392.6,52.45 407.06,52.45 407.06,44.61 392.6,44.61"/><polygon points="419.42,24.42 419.42,64.5 419.42,64.5 427.25,56.66 427.25,24.42 419.42,24.42"/><polygon points="443.83,64.5 443.83,56.66 427.25,56.66 419.42,64.5"/><polygon points="478.24,28.28 470.47,20.5 470.47,20.5 470.47,20.5 467.22,28.34 472.7,33.82"/><polygon points="470.47,20.5 456.37,20.5 459.62,28.34 467.22,28.34 470.47,20.5"/><polygon points="456.37,20.5 447.45,29.43 447.45,29.43 447.45,29.43 455.28,32.67 459.62,28.34 456.37,20.5"/><polygon points="447.45,29.43 447.45,37.49 455.28,34.25 455.28,32.67 447.45,29.43"/><polygon points="447.45,37.49 456.37,46.42 459.62,38.58 455.28,34.25 447.45,37.49"/><polygon points="456.37,46.42 467.22,46.42 470.47,38.58 459.62,38.58"/><polygon points="467.22,46.42 471.55,50.75 479.39,47.51 479.39,47.51 479.39,47.51 470.47,38.58"/><polygon points="471.55,50.75 471.55,52.33 479.39,55.57 479.39,55.57 479.39,47.51 479.39,47.51"/><polygon points="471.55,52.33 467.22,56.66 470.47,64.5 470.47,64.5 479.39,55.57 479.39,55.57 479.39,55.57"/><polygon points="467.22,56.66 459.62,56.66 456.37,64.5 470.47,64.5"/><polygon points="459.62,56.66 454.13,51.18 448.59,56.72 456.37,64.5 456.37,64.5"/><polygon points="505.61,28.34 529.72,28.34 529.72,20.5 529.72,20.5 505.61,20.5 505.61,20.5"/><polygon points="513.75,24.42 513.75,60.58 521.58,60.58 521.58,24.42"/><polygon points="546.71,28.34 553.11,28.34 556.36,20.5 543.47,20.5 543.47,20.5"/><polygon points="553.11,28.34 558.05,33.27 565.88,30.03 565.88,30.03 565.88,30.03 556.36,20.5 556.36,20.5"/><polygon points="558.05,33.27 558.05,51.73 565.88,54.97 565.88,54.97 565.88,30.03 565.88,30.03"/><polygon points="558.05,51.73 553.11,56.66 556.36,64.5 556.36,64.5 565.88,54.97 565.88,54.97 565.88,54.97"/><polygon points="553.11,56.66 546.71,56.66 543.47,64.5 556.36,64.5"/><polygon points="546.71,56.66 541.77,51.73 533.94,54.97 533.94,54.97 533.94,54.97 543.47,64.5 543.47,64.5"/><polygon points="541.77,51.73 541.77,33.27 533.94,30.03 533.94,54.97 533.94,54.97"/><polygon points="541.77,33.27 546.71,28.34 543.47,20.5 543.47,20.5 543.47,20.5 533.94,30.03 533.94,30.03"/><polygon points="596.02,60.58 596.02,37.5 590.93,20.5 588.18,20.5 588.18,60.58 588.18,60.58"/><polygon points="596.02,37.5 607.17,54.45 607.17,40.19 594.21,20.5 590.93,20.5"/><polygon points="607.17,54.45 618.32,37.5 623.41,20.5 620.13,20.5 607.17,40.19"/><polygon points="618.32,37.5 618.32,60.58 626.16,60.58 626.16,60.58 626.16,20.5 626.16,20.5 623.41,20.5"/><polygon points="636.16,61.93 645.75,35.8 645.75,20.5 643.01,20.5 628.81,59.23"/><polygon points="645.75,35.8 655.33,61.93 662.69,59.23 648.48,20.5 645.75,20.5"/><polygon points="638.51,52.45 652.98,52.45 652.98,44.61 638.51,44.61"/><polygon points="665.34,24.42 665.34,60.58 665.34,60.58 673.17,60.58 673.17,24.42 665.34,24.42"/><polygon points="690.67,21.57 668.37,42.67 673.75,48.36 696.06,27.26"/><polygon points="676.17,40.35 690.04,62.65 696.69,58.51 682.83,36.21"/><polygon points="725.31,20.5 699.69,20.5 699.69,20.5 699.69,20.5 699.69,20.5 707.53,28.34 725.31,28.34 725.31,20.5"/><polygon points="699.69,20.5 699.69,20.5 699.69,64.5 699.69,64.5 707.53,56.66 707.53,28.34 699.69,20.5 699.69,20.5"/><polygon points="725.31,64.5 725.31,56.66 707.53,56.66 699.69,64.5"/><polygon points="703.61,46.42 721.69,46.42 721.69,38.58 703.61,38.58"/></g></mask></defs><g mask="url(#hintjoin2crystalsto)"><use href="#hintjoin2crystalst" x="1.5" y="1.5" fill="#000" stroke="#000" filter="url(#hintjoin2crystalstb)" opacity="0.12"/></g><g fill="#fff"><polygon opacity="0.03" points="53.25,24.42 53.25,51.73 61.09,54.97 61.09,54.97 61.09,24.42 61.09,24.42"/><polygon opacity="0.03" points="53.25,51.73 48.32,56.66 51.56,64.5 51.56,64.5 61.09,54.97 61.09,54.97 61.09,54.97"/><polygon opacity="0.03" points="48.32,56.66 44.33,56.66 41.08,64.5 51.56,64.5"/><polygon opacity="0.03" points="44.33,56.66 38.24,50.58 32.7,56.12 41.08,64.5 41.08,64.5"/><polygon opacity="0.03" points="76.27,28.34 82.67,28.34 85.92,20.5 73.03,20.5 73.03,20.5"/><polygon opacity="0.03" points="82.67,28.34 87.61,33.27 95.45,30.03 95.45,30.03 95.45,30.03 85.92,20.5 85.92,20.5"/><polygon opacity="0.03" points="87.61,33.27 87.61,51.73 95.45,54.97 95.45,54.97 95.45,30.03 95.45,30.03"/><polygon opacity="0.03" points="87.61,51.73 82.67,56.66 85.92,64.5 85.92,64.5 95.45,54.97 95.45,54.97 95.45,54.97"/><polygon opacity="0.03" points="82.67,56.66 76.27,56.66 73.03,64.5 85.92,64.5"/><polygon opacity="0.03" points="76.27,56.66 71.34,51.73 63.5,54.97 63.5,54.97 63.5,54.97 73.03,64.5 73.03,64.5"/><polygon opacity="0.03" points="71.34,51.73 71.34,33.27 63.5,30.03 63.5,54.97 63.5,54.97"/><polygon opacity="0.03" points="71.34,33.27 76.27,28.34 73.03,20.5 73.03,20.5 73.03,20.5 63.5,30.03 63.5,30.03"/><polygon opacity="0.03" points="97.86,24.42 97.86,60.58 97.86,60.58 105.69,60.58 105.69,60.58 105.69,24.42 105.69,24.42 97.86,24.42"/><polygon opacity="0.03" points="115.94,60.58 115.94,37.36 110.83,20.5 108.1,20.5 108.1,60.58 108.1,60.58"/><polygon opacity="0.03" points="115.94,37.36 134.03,64.5 137.32,64.5 132.21,47.64 114.12,20.5 110.83,20.5"/><polygon opacity="0.03" points="140.05,64.5 140.05,24.42 140.05,24.42 132.21,24.42 132.21,47.64 137.32,64.5 140.05,64.5"/><polygon opacity="0.03" points="169.04,34.42 175.12,28.34 171.88,20.5 171.88,20.5 171.88,20.5 163.5,28.88"/><polygon opacity="0.03" points="175.12,28.34 181.52,28.34 184.77,20.5 171.88,20.5 171.88,20.5"/><polygon opacity="0.03" points="181.52,28.34 186.46,33.27 194.29,30.03 194.29,30.03 194.29,30.03 184.77,20.5 184.77,20.5"/><polygon opacity="0.03" points="186.46,33.27 186.46,36.57 194.29,39.99 194.29,39.99 194.29,30.03 194.29,30.03"/><polygon opacity="0.03" points="186.46,36.57 162.35,58.87 162.35,62.12 176.27,56.66 194.29,39.99 194.29,39.99 194.29,39.99"/><polygon opacity="0.03" points="190.38,64.5 190.38,56.66 176.27,56.66 162.35,62.12 162.35,64.5"/><polygon opacity="0.03" points="247.39,28.88 239.01,20.5 239.01,20.5 239.01,20.5 235.77,28.34 241.85,34.42"/><polygon opacity="0.03" points="239.01,20.5 226.12,20.5 229.37,28.34 235.77,28.34 239.01,20.5"/><polygon opacity="0.03" points="226.12,20.5 216.6,30.03 216.6,30.03 216.6,30.03 224.43,33.27 229.37,28.34 226.12,20.5"/><polygon opacity="0.03" points="216.6,30.03 216.6,54.97 224.43,51.73 224.43,33.27 216.6,30.03"/><polygon opacity="0.03" points="216.6,54.97 226.12,64.5 226.12,64.5 229.37,56.66 224.43,51.73 216.6,54.97"/><polygon opacity="0.03" points="239.01,64.5 235.77,56.66 229.37,56.66 226.12,64.5"/><polygon opacity="0.03" points="239.01,64.5 247.39,56.12 241.85,50.58 235.77,56.66 239.01,64.5"/><polygon opacity="0.03" points="258.79,60.58 258.79,28.34 250.95,20.5 250.95,20.5 250.95,20.5 250.95,20.5 250.95,60.58 250.95,60.58"/><polygon opacity="0.03" points="258.79,28.34 270.12,28.34 273.37,20.5 250.95,20.5 250.95,20.5 250.95,20.5 250.95,20.5"/><polygon opacity="0.03" points="270.12,28.34 275.06,33.27 282.9,30.03 282.9,30.03 282.9,30.03 273.37,20.5 273.37,20.5"/><polygon opacity="0.03" points="275.06,33.27 275.06,34.25 282.9,37.49 282.9,37.49 282.9,30.03 282.9,30.03"/><polygon opacity="0.03" points="275.06,34.25 270.12,39.18 273.37,47.02 282.9,37.49 282.9,37.49 282.9,37.49"/><polygon opacity="0.03" points="270.12,39.18 254.87,39.18 254.87,47.02 273.37,47.02"/><polygon opacity="0.03" points="264.8,45.17 275.65,62.65 282.31,58.52 271.46,41.04"/><polygon opacity="0.03" points="286,26.64 302.49,50.62 302.49,36.79 292.45,22.2"/><polygon opacity="0.03" points="302.49,50.62 318.98,26.64 312.52,22.2 302.49,36.79"/><polygon opacity="0.03" points="298.57,43.71 298.57,60.58 306.4,60.58 306.4,43.71"/><polygon opacity="0.03" points="352.87,28.28 345.1,20.5 345.1,20.5 345.1,20.5 341.85,28.34 347.33,33.82"/><polygon opacity="0.03" points="345.1,20.5 331,20.5 334.25,28.34 341.85,28.34 345.1,20.5"/><polygon opacity="0.03" points="331,20.5 322.08,29.43 322.08,29.43 322.08,29.43 329.91,32.67 334.25,28.34 331,20.5"/><polygon opacity="0.03" points="322.08,29.43 322.08,37.49 329.91,34.25 329.91,32.67 322.08,29.43"/><polygon opacity="0.03" points="322.08,37.49 331,46.42 334.25,38.58 329.91,34.25 322.08,37.49"/><polygon opacity="0.03" points="331,46.42 341.85,46.42 345.1,38.58 334.25,38.58"/><polygon opacity="0.03" points="341.85,46.42 346.18,50.75 354.02,47.51 354.02,47.51 354.02,47.51 345.1,38.58"/><polygon opacity="0.03" points="346.18,50.75 346.18,52.33 354.02,55.57 354.02,55.57 354.02,47.51 354.02,47.51"/><polygon opacity="0.03" points="346.18,52.33 341.85,56.66 345.1,64.5 345.1,64.5 354.02,55.57 354.02,55.57 354.02,55.57"/><polygon opacity="0.03" points="341.85,56.66 334.25,56.66 331,64.5 345.1,64.5"/><polygon opacity="0.03" points="334.25,56.66 328.76,51.18 323.22,56.72 331,64.5 331,64.5"/><polygon opacity="0.03" points="357.64,28.34 381.75,28.34 381.75,20.5 381.75,20.5 357.64,20.5 357.64,20.5"/><polygon opacity="0.03" points="365.77,24.42 365.77,60.58 373.61,60.58 373.61,24.42"/><polygon opacity="0.03" points="390.25,61.93 399.83,35.8 399.83,20.5 397.09,20.5 382.89,59.23"/><polygon opacity="0.03" points="399.83,35.8 409.41,61.93 416.77,59.23 402.57,20.5 399.83,20.5"/><polygon opacity="0.03" points="392.6,52.45 407.06,52.45 407.06,44.61 392.6,44.61"/><polygon opacity="0.03" points="419.42,24.42 419.42,64.5 419.42,64.5 427.25,56.66 427.25,24.42 419.42,24.42"/><polygon opacity="0.03" points="443.83,64.5 443.83,56.66 427.25,56.66 419.42,64.5"/><polygon opacity="0.03" points="478.24,28.28 470.47,20.5 470.47,20.5 470.47,20.5 467.22,28.34 472.7,33.82"/><polygon opacity="0.03" points="470.47,20.5 456.37,20.5 459.62,28.34 467.22,28.34 470.47,20.5"/><polygon opacity="0.03" points="456.37,20.5 447.45,29.43 447.45,29.43 447.45,29.43 455.28,32.67 459.62,28.34 456.37,20.5"/><polygon opacity="0.03" points="447.45,29.43 447.45,37.49 455.28,34.25 455.28,32.67 447.45,29.43"/><polygon opacity="0.03" points="447.45,37.49 456.37,46.42 459.62,38.58 455.28,34.25 447.45,37.49"/><polygon opacity="0.03" points="456.37,46.42 467.22,46.42 470.47,38.58 459.62,38.58"/><polygon opacity="0.03" points="467.22,46.42 471.55,50.75 479.39,47.51 479.39,47.51 479.39,47.51 470.47,38.58"/><polygon opacity="0.03" points="471.55,50.75 471.55,52.33 479.39,55.57 479.39,55.57 479.39,47.51 479.39,47.51"/><polygon opacity="0.03" points="471.55,52.33 467.22,56.66 470.47,64.5 470.47,64.5 479.39,55.57 479.39,55.57 479.39,55.57"/><polygon opacity="0.03" points="467.22,56.66 459.62,56.66 456.37,64.5 470.47,64.5"/><polygon opacity="0.03" points="459.62,56.66 454.13,51.18 448.59,56.72 456.37,64.5 456.37,64.5"/><polygon opacity="0.03" points="505.61,28.34 529.72,28.34 529.72,20.5 529.72,20.5 505.61,20.5 505.61,20.5"/><polygon opacity="0.03" points="513.75,24.42 513.75,60.58 521.58,60.58 521.58,24.42"/><polygon opacity="0.03" points="546.71,28.34 553.11,28.34 556.36,20.5 543.47,20.5 543.47,20.5"/><polygon opacity="0.03" points="553.11,28.34 558.05,33.27 565.88,30.03 565.88,30.03 565.88,30.03 556.36,20.5 556.36,20.5"/><polygon opacity="0.03" points="558.05,33.27 558.05,51.73 565.88,54.97 565.88,54.97 565.88,30.03 565.88,30.03"/><polygon opacity="0.03" points="558.05,51.73 553.11,56.66 556.36,64.5 556.36,64.5 565.88,54.97 565.88,54.97 565.88,54.97"/><polygon opacity="0.03" points="553.11,56.66 546.71,56.66 543.47,64.5 556.36,64.5"/><polygon opacity="0.03" points="546.71,56.66 541.77,51.73 533.94,54.97 533.94,54.97 533.94,54.97 543.47,64.5 543.47,64.5"/><polygon opacity="0.03" points="541.77,51.73 541.77,33.27 533.94,30.03 533.94,54.97 533.94,54.97"/><polygon opacity="0.03" points="541.77,33.27 546.71,28.34 543.47,20.5 543.47,20.5 543.47,20.5 533.94,30.03 533.94,30.03"/><polygon opacity="0.03" points="596.02,60.58 596.02,37.5 590.93,20.5 588.18,20.5 588.18,60.58 588.18,60.58"/><polygon opacity="0.03" points="596.02,37.5 607.17,54.45 607.17,40.19 594.21,20.5 590.93,20.5"/><polygon opacity="0.03" points="607.17,54.45 618.32,37.5 623.41,20.5 620.13,20.5 607.17,40.19"/><polygon opacity="0.03" points="618.32,37.5 618.32,60.58 626.16,60.58 626.16,60.58 626.16,20.5 626.16,20.5 623.41,20.5"/><polygon opacity="0.03" points="636.16,61.93 645.75,35.8 645.75,20.5 643.01,20.5 628.81,59.23"/><polygon opacity="0.03" points="645.75,35.8 655.33,61.93 662.69,59.23 648.48,20.5 645.75,20.5"/><polygon opacity="0.03" points="638.51,52.45 652.98,52.45 652.98,44.61 638.51,44.61"/><polygon opacity="0.03" points="665.34,24.42 665.34,60.58 665.34,60.58 673.17,60.58 673.17,24.42 665.34,24.42"/><polygon opacity="0.03" points="690.67,21.57 668.37,42.67 673.75,48.36 696.06,27.26"/><polygon opacity="0.03" points="676.17,40.35 690.04,62.65 696.69,58.51 682.83,36.21"/><polygon opacity="0.03" points="725.31,20.5 699.69,20.5 699.69,20.5 699.69,20.5 699.69,20.5 707.53,28.34 725.31,28.34 725.31,20.5"/><polygon opacity="0.03" points="699.69,20.5 699.69,20.5 699.69,64.5 699.69,64.5 707.53,56.66 707.53,28.34 699.69,20.5 699.69,20.5"/><polygon opacity="0.03" points="725.31,64.5 725.31,56.66 707.53,56.66 699.69,64.5"/><polygon opacity="0.03" points="703.61,46.42 721.69,46.42 721.69,38.58 703.61,38.58"/></g><defs><mask id="hintjoin2crystalstvL" maskUnits="userSpaceOnUse" x="-10000" y="-10000" width="20000" height="20000"><g fill="#fff"><polygon points="53.25,24.42 53.25,51.73 61.09,54.97 61.09,54.97 61.09,24.42 61.09,24.42"/><polygon points="53.25,51.73 48.32,56.66 51.56,64.5 51.56,64.5 61.09,54.97 61.09,54.97 61.09,54.97"/><polygon points="48.32,56.66 44.33,56.66 41.08,64.5 51.56,64.5"/><polygon points="44.33,56.66 38.24,50.58 32.7,56.12 41.08,64.5 41.08,64.5"/><polygon points="76.27,28.34 82.67,28.34 85.92,20.5 73.03,20.5 73.03,20.5"/><polygon points="82.67,28.34 87.61,33.27 95.45,30.03 95.45,30.03 95.45,30.03 85.92,20.5 85.92,20.5"/><polygon points="87.61,33.27 87.61,51.73 95.45,54.97 95.45,54.97 95.45,30.03 95.45,30.03"/><polygon points="87.61,51.73 82.67,56.66 85.92,64.5 85.92,64.5 95.45,54.97 95.45,54.97 95.45,54.97"/><polygon points="82.67,56.66 76.27,56.66 73.03,64.5 85.92,64.5"/><polygon points="76.27,56.66 71.34,51.73 63.5,54.97 63.5,54.97 63.5,54.97 73.03,64.5 73.03,64.5"/><polygon points="71.34,51.73 71.34,33.27 63.5,30.03 63.5,54.97 63.5,54.97"/><polygon points="71.34,33.27 76.27,28.34 73.03,20.5 73.03,20.5 73.03,20.5 63.5,30.03 63.5,30.03"/><polygon points="97.86,24.42 97.86,60.58 97.86,60.58 105.69,60.58 105.69,60.58 105.69,24.42 105.69,24.42 97.86,24.42"/><polygon points="115.94,60.58 115.94,37.36 110.83,20.5 108.1,20.5 108.1,60.58 108.1,60.58"/><polygon points="115.94,37.36 134.03,64.5 137.32,64.5 132.21,47.64 114.12,20.5 110.83,20.5"/><polygon points="140.05,64.5 140.05,24.42 140.05,24.42 132.21,24.42 132.21,47.64 137.32,64.5 140.05,64.5"/><polygon points="169.04,34.42 175.12,28.34 171.88,20.5 171.88,20.5 171.88,20.5 163.5,28.88"/><polygon points="175.12,28.34 181.52,28.34 184.77,20.5 171.88,20.5 171.88,20.5"/><polygon points="181.52,28.34 186.46,33.27 194.29,30.03 194.29,30.03 194.29,30.03 184.77,20.5 184.77,20.5"/><polygon points="186.46,33.27 186.46,36.57 194.29,39.99 194.29,39.99 194.29,30.03 194.29,30.03"/><polygon points="186.46,36.57 162.35,58.87 162.35,62.12 176.27,56.66 194.29,39.99 194.29,39.99 194.29,39.99"/><polygon points="190.38,64.5 190.38,56.66 176.27,56.66 162.35,62.12 162.35,64.5"/><polygon points="247.39,28.88 239.01,20.5 239.01,20.5 239.01,20.5 235.77,28.34 241.85,34.42"/><polygon points="239.01,20.5 226.12,20.5 229.37,28.34 235.77,28.34 239.01,20.5"/><polygon points="226.12,20.5 216.6,30.03 216.6,30.03 216.6,30.03 224.43,33.27 229.37,28.34 226.12,20.5"/><polygon points="216.6,30.03 216.6,54.97 224.43,51.73 224.43,33.27 216.6,30.03"/><polygon points="216.6,54.97 226.12,64.5 226.12,64.5 229.37,56.66 224.43,51.73 216.6,54.97"/><polygon points="239.01,64.5 235.77,56.66 229.37,56.66 226.12,64.5"/><polygon points="239.01,64.5 247.39,56.12 241.85,50.58 235.77,56.66 239.01,64.5"/><polygon points="258.79,60.58 258.79,28.34 250.95,20.5 250.95,20.5 250.95,20.5 250.95,20.5 250.95,60.58 250.95,60.58"/><polygon points="258.79,28.34 270.12,28.34 273.37,20.5 250.95,20.5 250.95,20.5 250.95,20.5 250.95,20.5"/><polygon points="270.12,28.34 275.06,33.27 282.9,30.03 282.9,30.03 282.9,30.03 273.37,20.5 273.37,20.5"/><polygon points="275.06,33.27 275.06,34.25 282.9,37.49 282.9,37.49 282.9,30.03 282.9,30.03"/><polygon points="275.06,34.25 270.12,39.18 273.37,47.02 282.9,37.49 282.9,37.49 282.9,37.49"/><polygon points="270.12,39.18 254.87,39.18 254.87,47.02 273.37,47.02"/><polygon points="264.8,45.17 275.65,62.65 282.31,58.52 271.46,41.04"/><polygon points="286,26.64 302.49,50.62 302.49,36.79 292.45,22.2"/><polygon points="302.49,50.62 318.98,26.64 312.52,22.2 302.49,36.79"/><polygon points="298.57,43.71 298.57,60.58 306.4,60.58 306.4,43.71"/><polygon points="352.87,28.28 345.1,20.5 345.1,20.5 345.1,20.5 341.85,28.34 347.33,33.82"/><polygon points="345.1,20.5 331,20.5 334.25,28.34 341.85,28.34 345.1,20.5"/><polygon points="331,20.5 322.08,29.43 322.08,29.43 322.08,29.43 329.91,32.67 334.25,28.34 331,20.5"/><polygon points="322.08,29.43 322.08,37.49 329.91,34.25 329.91,32.67 322.08,29.43"/><polygon points="322.08,37.49 331,46.42 334.25,38.58 329.91,34.25 322.08,37.49"/><polygon points="331,46.42 341.85,46.42 345.1,38.58 334.25,38.58"/><polygon points="341.85,46.42 346.18,50.75 354.02,47.51 354.02,47.51 354.02,47.51 345.1,38.58"/><polygon points="346.18,50.75 346.18,52.33 354.02,55.57 354.02,55.57 354.02,47.51 354.02,47.51"/><polygon points="346.18,52.33 341.85,56.66 345.1,64.5 345.1,64.5 354.02,55.57 354.02,55.57 354.02,55.57"/><polygon points="341.85,56.66 334.25,56.66 331,64.5 345.1,64.5"/><polygon points="334.25,56.66 328.76,51.18 323.22,56.72 331,64.5 331,64.5"/><polygon points="357.64,28.34 381.75,28.34 381.75,20.5 381.75,20.5 357.64,20.5 357.64,20.5"/><polygon points="365.77,24.42 365.77,60.58 373.61,60.58 373.61,24.42"/><polygon points="390.25,61.93 399.83,35.8 399.83,20.5 397.09,20.5 382.89,59.23"/><polygon points="399.83,35.8 409.41,61.93 416.77,59.23 402.57,20.5 399.83,20.5"/><polygon points="392.6,52.45 407.06,52.45 407.06,44.61 392.6,44.61"/><polygon points="419.42,24.42 419.42,64.5 419.42,64.5 427.25,56.66 427.25,24.42 419.42,24.42"/><polygon points="443.83,64.5 443.83,56.66 427.25,56.66 419.42,64.5"/><polygon points="478.24,28.28 470.47,20.5 470.47,20.5 470.47,20.5 467.22,28.34 472.7,33.82"/><polygon points="470.47,20.5 456.37,20.5 459.62,28.34 467.22,28.34 470.47,20.5"/><polygon points="456.37,20.5 447.45,29.43 447.45,29.43 447.45,29.43 455.28,32.67 459.62,28.34 456.37,20.5"/><polygon points="447.45,29.43 447.45,37.49 455.28,34.25 455.28,32.67 447.45,29.43"/><polygon points="447.45,37.49 456.37,46.42 459.62,38.58 455.28,34.25 447.45,37.49"/><polygon points="456.37,46.42 467.22,46.42 470.47,38.58 459.62,38.58"/><polygon points="467.22,46.42 471.55,50.75 479.39,47.51 479.39,47.51 479.39,47.51 470.47,38.58"/><polygon points="471.55,50.75 471.55,52.33 479.39,55.57 479.39,55.57 479.39,47.51 479.39,47.51"/><polygon points="471.55,52.33 467.22,56.66 470.47,64.5 470.47,64.5 479.39,55.57 479.39,55.57 479.39,55.57"/><polygon points="467.22,56.66 459.62,56.66 456.37,64.5 470.47,64.5"/><polygon points="459.62,56.66 454.13,51.18 448.59,56.72 456.37,64.5 456.37,64.5"/><polygon points="505.61,28.34 529.72,28.34 529.72,20.5 529.72,20.5 505.61,20.5 505.61,20.5"/><polygon points="513.75,24.42 513.75,60.58 521.58,60.58 521.58,24.42"/><polygon points="546.71,28.34 553.11,28.34 556.36,20.5 543.47,20.5 543.47,20.5"/><polygon points="553.11,28.34 558.05,33.27 565.88,30.03 565.88,30.03 565.88,30.03 556.36,20.5 556.36,20.5"/><polygon points="558.05,33.27 558.05,51.73 565.88,54.97 565.88,54.97 565.88,30.03 565.88,30.03"/><polygon points="558.05,51.73 553.11,56.66 556.36,64.5 556.36,64.5 565.88,54.97 565.88,54.97 565.88,54.97"/><polygon points="553.11,56.66 546.71,56.66 543.47,64.5 556.36,64.5"/><polygon points="546.71,56.66 541.77,51.73 533.94,54.97 533.94,54.97 533.94,54.97 543.47,64.5 543.47,64.5"/><polygon points="541.77,51.73 541.77,33.27 533.94,30.03 533.94,54.97 533.94,54.97"/><polygon points="541.77,33.27 546.71,28.34 543.47,20.5 543.47,20.5 543.47,20.5 533.94,30.03 533.94,30.03"/><polygon points="596.02,60.58 596.02,37.5 590.93,20.5 588.18,20.5 588.18,60.58 588.18,60.58"/><polygon points="596.02,37.5 607.17,54.45 607.17,40.19 594.21,20.5 590.93,20.5"/><polygon points="607.17,54.45 618.32,37.5 623.41,20.5 620.13,20.5 607.17,40.19"/><polygon points="618.32,37.5 618.32,60.58 626.16,60.58 626.16,60.58 626.16,20.5 626.16,20.5 623.41,20.5"/><polygon points="636.16,61.93 645.75,35.8 645.75,20.5 643.01,20.5 628.81,59.23"/><polygon points="645.75,35.8 655.33,61.93 662.69,59.23 648.48,20.5 645.75,20.5"/><polygon points="638.51,52.45 652.98,52.45 652.98,44.61 638.51,44.61"/><polygon points="665.34,24.42 665.34,60.58 665.34,60.58 673.17,60.58 673.17,24.42 665.34,24.42"/><polygon points="690.67,21.57 668.37,42.67 673.75,48.36 696.06,27.26"/><polygon points="676.17,40.35 690.04,62.65 696.69,58.51 682.83,36.21"/><polygon points="725.31,20.5 699.69,20.5 699.69,20.5 699.69,20.5 699.69,20.5 707.53,28.34 725.31,28.34 725.31,20.5"/><polygon points="699.69,20.5 699.69,20.5 699.69,64.5 699.69,64.5 707.53,56.66 707.53,28.34 699.69,20.5 699.69,20.5"/><polygon points="725.31,64.5 725.31,56.66 707.53,56.66 699.69,64.5"/><polygon points="703.61,46.42 721.69,46.42 721.69,38.58 703.61,38.58"/></g><g fill="#000" transform="translate(1.5 1.5)"><polygon points="53.25,24.42 53.25,51.73 61.09,54.97 61.09,54.97 61.09,24.42 61.09,24.42"/><polygon points="53.25,51.73 48.32,56.66 51.56,64.5 51.56,64.5 61.09,54.97 61.09,54.97 61.09,54.97"/><polygon points="48.32,56.66 44.33,56.66 41.08,64.5 51.56,64.5"/><polygon points="44.33,56.66 38.24,50.58 32.7,56.12 41.08,64.5 41.08,64.5"/><polygon points="76.27,28.34 82.67,28.34 85.92,20.5 73.03,20.5 73.03,20.5"/><polygon points="82.67,28.34 87.61,33.27 95.45,30.03 95.45,30.03 95.45,30.03 85.92,20.5 85.92,20.5"/><polygon points="87.61,33.27 87.61,51.73 95.45,54.97 95.45,54.97 95.45,30.03 95.45,30.03"/><polygon points="87.61,51.73 82.67,56.66 85.92,64.5 85.92,64.5 95.45,54.97 95.45,54.97 95.45,54.97"/><polygon points="82.67,56.66 76.27,56.66 73.03,64.5 85.92,64.5"/><polygon points="76.27,56.66 71.34,51.73 63.5,54.97 63.5,54.97 63.5,54.97 73.03,64.5 73.03,64.5"/><polygon points="71.34,51.73 71.34,33.27 63.5,30.03 63.5,54.97 63.5,54.97"/><polygon points="71.34,33.27 76.27,28.34 73.03,20.5 73.03,20.5 73.03,20.5 63.5,30.03 63.5,30.03"/><polygon points="97.86,24.42 97.86,60.58 97.86,60.58 105.69,60.58 105.69,60.58 105.69,24.42 105.69,24.42 97.86,24.42"/><polygon points="115.94,60.58 115.94,37.36 110.83,20.5 108.1,20.5 108.1,60.58 108.1,60.58"/><polygon points="115.94,37.36 134.03,64.5 137.32,64.5 132.21,47.64 114.12,20.5 110.83,20.5"/><polygon points="140.05,64.5 140.05,24.42 140.05,24.42 132.21,24.42 132.21,47.64 137.32,64.5 140.05,64.5"/><polygon points="169.04,34.42 175.12,28.34 171.88,20.5 171.88,20.5 171.88,20.5 163.5,28.88"/><polygon points="175.12,28.34 181.52,28.34 184.77,20.5 171.88,20.5 171.88,20.5"/><polygon points="181.52,28.34 186.46,33.27 194.29,30.03 194.29,30.03 194.29,30.03 184.77,20.5 184.77,20.5"/><polygon points="186.46,33.27 186.46,36.57 194.29,39.99 194.29,39.99 194.29,30.03 194.29,30.03"/><polygon points="186.46,36.57 162.35,58.87 162.35,62.12 176.27,56.66 194.29,39.99 194.29,39.99 194.29,39.99"/><polygon points="190.38,64.5 190.38,56.66 176.27,56.66 162.35,62.12 162.35,64.5"/><polygon points="247.39,28.88 239.01,20.5 239.01,20.5 239.01,20.5 235.77,28.34 241.85,34.42"/><polygon points="239.01,20.5 226.12,20.5 229.37,28.34 235.77,28.34 239.01,20.5"/><polygon points="226.12,20.5 216.6,30.03 216.6,30.03 216.6,30.03 224.43,33.27 229.37,28.34 226.12,20.5"/><polygon points="216.6,30.03 216.6,54.97 224.43,51.73 224.43,33.27 216.6,30.03"/><polygon points="216.6,54.97 226.12,64.5 226.12,64.5 229.37,56.66 224.43,51.73 216.6,54.97"/><polygon points="239.01,64.5 235.77,56.66 229.37,56.66 226.12,64.5"/><polygon points="239.01,64.5 247.39,56.12 241.85,50.58 235.77,56.66 239.01,64.5"/><polygon points="258.79,60.58 258.79,28.34 250.95,20.5 250.95,20.5 250.95,20.5 250.95,20.5 250.95,60.58 250.95,60.58"/><polygon points="258.79,28.34 270.12,28.34 273.37,20.5 250.95,20.5 250.95,20.5 250.95,20.5 250.95,20.5"/><polygon points="270.12,28.34 275.06,33.27 282.9,30.03 282.9,30.03 282.9,30.03 273.37,20.5 273.37,20.5"/><polygon points="275.06,33.27 275.06,34.25 282.9,37.49 282.9,37.49 282.9,30.03 282.9,30.03"/><polygon points="275.06,34.25 270.12,39.18 273.37,47.02 282.9,37.49 282.9,37.49 282.9,37.49"/><polygon points="270.12,39.18 254.87,39.18 254.87,47.02 273.37,47.02"/><polygon points="264.8,45.17 275.65,62.65 282.31,58.52 271.46,41.04"/><polygon points="286,26.64 302.49,50.62 302.49,36.79 292.45,22.2"/><polygon points="302.49,50.62 318.98,26.64 312.52,22.2 302.49,36.79"/><polygon points="298.57,43.71 298.57,60.58 306.4,60.58 306.4,43.71"/><polygon points="352.87,28.28 345.1,20.5 345.1,20.5 345.1,20.5 341.85,28.34 347.33,33.82"/><polygon points="345.1,20.5 331,20.5 334.25,28.34 341.85,28.34 345.1,20.5"/><polygon points="331,20.5 322.08,29.43 322.08,29.43 322.08,29.43 329.91,32.67 334.25,28.34 331,20.5"/><polygon points="322.08,29.43 322.08,37.49 329.91,34.25 329.91,32.67 322.08,29.43"/><polygon points="322.08,37.49 331,46.42 334.25,38.58 329.91,34.25 322.08,37.49"/><polygon points="331,46.42 341.85,46.42 345.1,38.58 334.25,38.58"/><polygon points="341.85,46.42 346.18,50.75 354.02,47.51 354.02,47.51 354.02,47.51 345.1,38.58"/><polygon points="346.18,50.75 346.18,52.33 354.02,55.57 354.02,55.57 354.02,47.51 354.02,47.51"/><polygon points="346.18,52.33 341.85,56.66 345.1,64.5 345.1,64.5 354.02,55.57 354.02,55.57 354.02,55.57"/><polygon points="341.85,56.66 334.25,56.66 331,64.5 345.1,64.5"/><polygon points="334.25,56.66 328.76,51.18 323.22,56.72 331,64.5 331,64.5"/><polygon points="357.64,28.34 381.75,28.34 381.75,20.5 381.75,20.5 357.64,20.5 357.64,20.5"/><polygon points="365.77,24.42 365.77,60.58 373.61,60.58 373.61,24.42"/><polygon points="390.25,61.93 399.83,35.8 399.83,20.5 397.09,20.5 382.89,59.23"/><polygon points="399.83,35.8 409.41,61.93 416.77,59.23 402.57,20.5 399.83,20.5"/><polygon points="392.6,52.45 407.06,52.45 407.06,44.61 392.6,44.61"/><polygon points="419.42,24.42 419.42,64.5 419.42,64.5 427.25,56.66 427.25,24.42 419.42,24.42"/><polygon points="443.83,64.5 443.83,56.66 427.25,56.66 419.42,64.5"/><polygon points="478.24,28.28 470.47,20.5 470.47,20.5 470.47,20.5 467.22,28.34 472.7,33.82"/><polygon points="470.47,20.5 456.37,20.5 459.62,28.34 467.22,28.34 470.47,20.5"/><polygon points="456.37,20.5 447.45,29.43 447.45,29.43 447.45,29.43 455.28,32.67 459.62,28.34 456.37,20.5"/><polygon points="447.45,29.43 447.45,37.49 455.28,34.25 455.28,32.67 447.45,29.43"/><polygon points="447.45,37.49 456.37,46.42 459.62,38.58 455.28,34.25 447.45,37.49"/><polygon points="456.37,46.42 467.22,46.42 470.47,38.58 459.62,38.58"/><polygon points="467.22,46.42 471.55,50.75 479.39,47.51 479.39,47.51 479.39,47.51 470.47,38.58"/><polygon points="471.55,50.75 471.55,52.33 479.39,55.57 479.39,55.57 479.39,47.51 479.39,47.51"/><polygon points="471.55,52.33 467.22,56.66 470.47,64.5 470.47,64.5 479.39,55.57 479.39,55.57 479.39,55.57"/><polygon points="467.22,56.66 459.62,56.66 456.37,64.5 470.47,64.5"/><polygon points="459.62,56.66 454.13,51.18 448.59,56.72 456.37,64.5 456.37,64.5"/><polygon points="505.61,28.34 529.72,28.34 529.72,20.5 529.72,20.5 505.61,20.5 505.61,20.5"/><polygon points="513.75,24.42 513.75,60.58 521.58,60.58 521.58,24.42"/><polygon points="546.71,28.34 553.11,28.34 556.36,20.5 543.47,20.5 543.47,20.5"/><polygon points="553.11,28.34 558.05,33.27 565.88,30.03 565.88,30.03 565.88,30.03 556.36,20.5 556.36,20.5"/><polygon points="558.05,33.27 558.05,51.73 565.88,54.97 565.88,54.97 565.88,30.03 565.88,30.03"/><polygon points="558.05,51.73 553.11,56.66 556.36,64.5 556.36,64.5 565.88,54.97 565.88,54.97 565.88,54.97"/><polygon points="553.11,56.66 546.71,56.66 543.47,64.5 556.36,64.5"/><polygon points="546.71,56.66 541.77,51.73 533.94,54.97 533.94,54.97 533.94,54.97 543.47,64.5 543.47,64.5"/><polygon points="541.77,51.73 541.77,33.27 533.94,30.03 533.94,54.97 533.94,54.97"/><polygon points="541.77,33.27 546.71,28.34 543.47,20.5 543.47,20.5 543.47,20.5 533.94,30.03 533.94,30.03"/><polygon points="596.02,60.58 596.02,37.5 590.93,20.5 588.18,20.5 588.18,60.58 588.18,60.58"/><polygon points="596.02,37.5 607.17,54.45 607.17,40.19 594.21,20.5 590.93,20.5"/><polygon points="607.17,54.45 618.32,37.5 623.41,20.5 620.13,20.5 607.17,40.19"/><polygon points="618.32,37.5 618.32,60.58 626.16,60.58 626.16,60.58 626.16,20.5 626.16,20.5 623.41,20.5"/><polygon points="636.16,61.93 645.75,35.8 645.75,20.5 643.01,20.5 628.81,59.23"/><polygon points="645.75,35.8 655.33,61.93 662.69,59.23 648.48,20.5 645.75,20.5"/><polygon points="638.51,52.45 652.98,52.45 652.98,44.61 638.51,44.61"/><polygon points="665.34,24.42 665.34,60.58 665.34,60.58 673.17,60.58 673.17,24.42 665.34,24.42"/><polygon points="690.67,21.57 668.37,42.67 673.75,48.36 696.06,27.26"/><polygon points="676.17,40.35 690.04,62.65 696.69,58.51 682.83,36.21"/><polygon points="725.31,20.5 699.69,20.5 699.69,20.5 699.69,20.5 699.69,20.5 707.53,28.34 725.31,28.34 725.31,20.5"/><polygon points="699.69,20.5 699.69,20.5 699.69,64.5 699.69,64.5 707.53,56.66 707.53,28.34 699.69,20.5 699.69,20.5"/><polygon points="725.31,64.5 725.31,56.66 707.53,56.66 699.69,64.5"/><polygon points="703.61,46.42 721.69,46.42 721.69,38.58 703.61,38.58"/></g></mask><mask id="hintjoin2crystalstvD" maskUnits="userSpaceOnUse" x="-10000" y="-10000" width="20000" height="20000"><g fill="#fff"><polygon points="53.25,24.42 53.25,51.73 61.09,54.97 61.09,54.97 61.09,24.42 61.09,24.42"/><polygon points="53.25,51.73 48.32,56.66 51.56,64.5 51.56,64.5 61.09,54.97 61.09,54.97 61.09,54.97"/><polygon points="48.32,56.66 44.33,56.66 41.08,64.5 51.56,64.5"/><polygon points="44.33,56.66 38.24,50.58 32.7,56.12 41.08,64.5 41.08,64.5"/><polygon points="76.27,28.34 82.67,28.34 85.92,20.5 73.03,20.5 73.03,20.5"/><polygon points="82.67,28.34 87.61,33.27 95.45,30.03 95.45,30.03 95.45,30.03 85.92,20.5 85.92,20.5"/><polygon points="87.61,33.27 87.61,51.73 95.45,54.97 95.45,54.97 95.45,30.03 95.45,30.03"/><polygon points="87.61,51.73 82.67,56.66 85.92,64.5 85.92,64.5 95.45,54.97 95.45,54.97 95.45,54.97"/><polygon points="82.67,56.66 76.27,56.66 73.03,64.5 85.92,64.5"/><polygon points="76.27,56.66 71.34,51.73 63.5,54.97 63.5,54.97 63.5,54.97 73.03,64.5 73.03,64.5"/><polygon points="71.34,51.73 71.34,33.27 63.5,30.03 63.5,54.97 63.5,54.97"/><polygon points="71.34,33.27 76.27,28.34 73.03,20.5 73.03,20.5 73.03,20.5 63.5,30.03 63.5,30.03"/><polygon points="97.86,24.42 97.86,60.58 97.86,60.58 105.69,60.58 105.69,60.58 105.69,24.42 105.69,24.42 97.86,24.42"/><polygon points="115.94,60.58 115.94,37.36 110.83,20.5 108.1,20.5 108.1,60.58 108.1,60.58"/><polygon points="115.94,37.36 134.03,64.5 137.32,64.5 132.21,47.64 114.12,20.5 110.83,20.5"/><polygon points="140.05,64.5 140.05,24.42 140.05,24.42 132.21,24.42 132.21,47.64 137.32,64.5 140.05,64.5"/><polygon points="169.04,34.42 175.12,28.34 171.88,20.5 171.88,20.5 171.88,20.5 163.5,28.88"/><polygon points="175.12,28.34 181.52,28.34 184.77,20.5 171.88,20.5 171.88,20.5"/><polygon points="181.52,28.34 186.46,33.27 194.29,30.03 194.29,30.03 194.29,30.03 184.77,20.5 184.77,20.5"/><polygon points="186.46,33.27 186.46,36.57 194.29,39.99 194.29,39.99 194.29,30.03 194.29,30.03"/><polygon points="186.46,36.57 162.35,58.87 162.35,62.12 176.27,56.66 194.29,39.99 194.29,39.99 194.29,39.99"/><polygon points="190.38,64.5 190.38,56.66 176.27,56.66 162.35,62.12 162.35,64.5"/><polygon points="247.39,28.88 239.01,20.5 239.01,20.5 239.01,20.5 235.77,28.34 241.85,34.42"/><polygon points="239.01,20.5 226.12,20.5 229.37,28.34 235.77,28.34 239.01,20.5"/><polygon points="226.12,20.5 216.6,30.03 216.6,30.03 216.6,30.03 224.43,33.27 229.37,28.34 226.12,20.5"/><polygon points="216.6,30.03 216.6,54.97 224.43,51.73 224.43,33.27 216.6,30.03"/><polygon points="216.6,54.97 226.12,64.5 226.12,64.5 229.37,56.66 224.43,51.73 216.6,54.97"/><polygon points="239.01,64.5 235.77,56.66 229.37,56.66 226.12,64.5"/><polygon points="239.01,64.5 247.39,56.12 241.85,50.58 235.77,56.66 239.01,64.5"/><polygon points="258.79,60.58 258.79,28.34 250.95,20.5 250.95,20.5 250.95,20.5 250.95,20.5 250.95,60.58 250.95,60.58"/><polygon points="258.79,28.34 270.12,28.34 273.37,20.5 250.95,20.5 250.95,20.5 250.95,20.5 250.95,20.5"/><polygon points="270.12,28.34 275.06,33.27 282.9,30.03 282.9,30.03 282.9,30.03 273.37,20.5 273.37,20.5"/><polygon points="275.06,33.27 275.06,34.25 282.9,37.49 282.9,37.49 282.9,30.03 282.9,30.03"/><polygon points="275.06,34.25 270.12,39.18 273.37,47.02 282.9,37.49 282.9,37.49 282.9,37.49"/><polygon points="270.12,39.18 254.87,39.18 254.87,47.02 273.37,47.02"/><polygon points="264.8,45.17 275.65,62.65 282.31,58.52 271.46,41.04"/><polygon points="286,26.64 302.49,50.62 302.49,36.79 292.45,22.2"/><polygon points="302.49,50.62 318.98,26.64 312.52,22.2 302.49,36.79"/><polygon points="298.57,43.71 298.57,60.58 306.4,60.58 306.4,43.71"/><polygon points="352.87,28.28 345.1,20.5 345.1,20.5 345.1,20.5 341.85,28.34 347.33,33.82"/><polygon points="345.1,20.5 331,20.5 334.25,28.34 341.85,28.34 345.1,20.5"/><polygon points="331,20.5 322.08,29.43 322.08,29.43 322.08,29.43 329.91,32.67 334.25,28.34 331,20.5"/><polygon points="322.08,29.43 322.08,37.49 329.91,34.25 329.91,32.67 322.08,29.43"/><polygon points="322.08,37.49 331,46.42 334.25,38.58 329.91,34.25 322.08,37.49"/><polygon points="331,46.42 341.85,46.42 345.1,38.58 334.25,38.58"/><polygon points="341.85,46.42 346.18,50.75 354.02,47.51 354.02,47.51 354.02,47.51 345.1,38.58"/><polygon points="346.18,50.75 346.18,52.33 354.02,55.57 354.02,55.57 354.02,47.51 354.02,47.51"/><polygon points="346.18,52.33 341.85,56.66 345.1,64.5 345.1,64.5 354.02,55.57 354.02,55.57 354.02,55.57"/><polygon points="341.85,56.66 334.25,56.66 331,64.5 345.1,64.5"/><polygon points="334.25,56.66 328.76,51.18 323.22,56.72 331,64.5 331,64.5"/><polygon points="357.64,28.34 381.75,28.34 381.75,20.5 381.75,20.5 357.64,20.5 357.64,20.5"/><polygon points="365.77,24.42 365.77,60.58 373.61,60.58 373.61,24.42"/><polygon points="390.25,61.93 399.83,35.8 399.83,20.5 397.09,20.5 382.89,59.23"/><polygon points="399.83,35.8 409.41,61.93 416.77,59.23 402.57,20.5 399.83,20.5"/><polygon points="392.6,52.45 407.06,52.45 407.06,44.61 392.6,44.61"/><polygon points="419.42,24.42 419.42,64.5 419.42,64.5 427.25,56.66 427.25,24.42 419.42,24.42"/><polygon points="443.83,64.5 443.83,56.66 427.25,56.66 419.42,64.5"/><polygon points="478.24,28.28 470.47,20.5 470.47,20.5 470.47,20.5 467.22,28.34 472.7,33.82"/><polygon points="470.47,20.5 456.37,20.5 459.62,28.34 467.22,28.34 470.47,20.5"/><polygon points="456.37,20.5 447.45,29.43 447.45,29.43 447.45,29.43 455.28,32.67 459.62,28.34 456.37,20.5"/><polygon points="447.45,29.43 447.45,37.49 455.28,34.25 455.28,32.67 447.45,29.43"/><polygon points="447.45,37.49 456.37,46.42 459.62,38.58 455.28,34.25 447.45,37.49"/><polygon points="456.37,46.42 467.22,46.42 470.47,38.58 459.62,38.58"/><polygon points="467.22,46.42 471.55,50.75 479.39,47.51 479.39,47.51 479.39,47.51 470.47,38.58"/><polygon points="471.55,50.75 471.55,52.33 479.39,55.57 479.39,55.57 479.39,47.51 479.39,47.51"/><polygon points="471.55,52.33 467.22,56.66 470.47,64.5 470.47,64.5 479.39,55.57 479.39,55.57 479.39,55.57"/><polygon points="467.22,56.66 459.62,56.66 456.37,64.5 470.47,64.5"/><polygon points="459.62,56.66 454.13,51.18 448.59,56.72 456.37,64.5 456.37,64.5"/><polygon points="505.61,28.34 529.72,28.34 529.72,20.5 529.72,20.5 505.61,20.5 505.61,20.5"/><polygon points="513.75,24.42 513.75,60.58 521.58,60.58 521.58,24.42"/><polygon points="546.71,28.34 553.11,28.34 556.36,20.5 543.47,20.5 543.47,20.5"/><polygon points="553.11,28.34 558.05,33.27 565.88,30.03 565.88,30.03 565.88,30.03 556.36,20.5 556.36,20.5"/><polygon points="558.05,33.27 558.05,51.73 565.88,54.97 565.88,54.97 565.88,30.03 565.88,30.03"/><polygon points="558.05,51.73 553.11,56.66 556.36,64.5 556.36,64.5 565.88,54.97 565.88,54.97 565.88,54.97"/><polygon points="553.11,56.66 546.71,56.66 543.47,64.5 556.36,64.5"/><polygon points="546.71,56.66 541.77,51.73 533.94,54.97 533.94,54.97 533.94,54.97 543.47,64.5 543.47,64.5"/><polygon points="541.77,51.73 541.77,33.27 533.94,30.03 533.94,54.97 533.94,54.97"/><polygon points="541.77,33.27 546.71,28.34 543.47,20.5 543.47,20.5 543.47,20.5 533.94,30.03 533.94,30.03"/><polygon points="596.02,60.58 596.02,37.5 590.93,20.5 588.18,20.5 588.18,60.58 588.18,60.58"/><polygon points="596.02,37.5 607.17,54.45 607.17,40.19 594.21,20.5 590.93,20.5"/><polygon points="607.17,54.45 618.32,37.5 623.41,20.5 620.13,20.5 607.17,40.19"/><polygon points="618.32,37.5 618.32,60.58 626.16,60.58 626.16,60.58 626.16,20.5 626.16,20.5 623.41,20.5"/><polygon points="636.16,61.93 645.75,35.8 645.75,20.5 643.01,20.5 628.81,59.23"/><polygon points="645.75,35.8 655.33,61.93 662.69,59.23 648.48,20.5 645.75,20.5"/><polygon points="638.51,52.45 652.98,52.45 652.98,44.61 638.51,44.61"/><polygon points="665.34,24.42 665.34,60.58 665.34,60.58 673.17,60.58 673.17,24.42 665.34,24.42"/><polygon points="690.67,21.57 668.37,42.67 673.75,48.36 696.06,27.26"/><polygon points="676.17,40.35 690.04,62.65 696.69,58.51 682.83,36.21"/><polygon points="725.31,20.5 699.69,20.5 699.69,20.5 699.69,20.5 699.69,20.5 707.53,28.34 725.31,28.34 725.31,20.5"/><polygon points="699.69,20.5 699.69,20.5 699.69,64.5 699.69,64.5 707.53,56.66 707.53,28.34 699.69,20.5 699.69,20.5"/><polygon points="725.31,64.5 725.31,56.66 707.53,56.66 699.69,64.5"/><polygon points="703.61,46.42 721.69,46.42 721.69,38.58 703.61,38.58"/></g><g fill="#000" transform="translate(-1.5 -1.5)"><polygon points="53.25,24.42 53.25,51.73 61.09,54.97 61.09,54.97 61.09,24.42 61.09,24.42"/><polygon points="53.25,51.73 48.32,56.66 51.56,64.5 51.56,64.5 61.09,54.97 61.09,54.97 61.09,54.97"/><polygon points="48.32,56.66 44.33,56.66 41.08,64.5 51.56,64.5"/><polygon points="44.33,56.66 38.24,50.58 32.7,56.12 41.08,64.5 41.08,64.5"/><polygon points="76.27,28.34 82.67,28.34 85.92,20.5 73.03,20.5 73.03,20.5"/><polygon points="82.67,28.34 87.61,33.27 95.45,30.03 95.45,30.03 95.45,30.03 85.92,20.5 85.92,20.5"/><polygon points="87.61,33.27 87.61,51.73 95.45,54.97 95.45,54.97 95.45,30.03 95.45,30.03"/><polygon points="87.61,51.73 82.67,56.66 85.92,64.5 85.92,64.5 95.45,54.97 95.45,54.97 95.45,54.97"/><polygon points="82.67,56.66 76.27,56.66 73.03,64.5 85.92,64.5"/><polygon points="76.27,56.66 71.34,51.73 63.5,54.97 63.5,54.97 63.5,54.97 73.03,64.5 73.03,64.5"/><polygon points="71.34,51.73 71.34,33.27 63.5,30.03 63.5,54.97 63.5,54.97"/><polygon points="71.34,33.27 76.27,28.34 73.03,20.5 73.03,20.5 73.03,20.5 63.5,30.03 63.5,30.03"/><polygon points="97.86,24.42 97.86,60.58 97.86,60.58 105.69,60.58 105.69,60.58 105.69,24.42 105.69,24.42 97.86,24.42"/><polygon points="115.94,60.58 115.94,37.36 110.83,20.5 108.1,20.5 108.1,60.58 108.1,60.58"/><polygon points="115.94,37.36 134.03,64.5 137.32,64.5 132.21,47.64 114.12,20.5 110.83,20.5"/><polygon points="140.05,64.5 140.05,24.42 140.05,24.42 132.21,24.42 132.21,47.64 137.32,64.5 140.05,64.5"/><polygon points="169.04,34.42 175.12,28.34 171.88,20.5 171.88,20.5 171.88,20.5 163.5,28.88"/><polygon points="175.12,28.34 181.52,28.34 184.77,20.5 171.88,20.5 171.88,20.5"/><polygon points="181.52,28.34 186.46,33.27 194.29,30.03 194.29,30.03 194.29,30.03 184.77,20.5 184.77,20.5"/><polygon points="186.46,33.27 186.46,36.57 194.29,39.99 194.29,39.99 194.29,30.03 194.29,30.03"/><polygon points="186.46,36.57 162.35,58.87 162.35,62.12 176.27,56.66 194.29,39.99 194.29,39.99 194.29,39.99"/><polygon points="190.38,64.5 190.38,56.66 176.27,56.66 162.35,62.12 162.35,64.5"/><polygon points="247.39,28.88 239.01,20.5 239.01,20.5 239.01,20.5 235.77,28.34 241.85,34.42"/><polygon points="239.01,20.5 226.12,20.5 229.37,28.34 235.77,28.34 239.01,20.5"/><polygon points="226.12,20.5 216.6,30.03 216.6,30.03 216.6,30.03 224.43,33.27 229.37,28.34 226.12,20.5"/><polygon points="216.6,30.03 216.6,54.97 224.43,51.73 224.43,33.27 216.6,30.03"/><polygon points="216.6,54.97 226.12,64.5 226.12,64.5 229.37,56.66 224.43,51.73 216.6,54.97"/><polygon points="239.01,64.5 235.77,56.66 229.37,56.66 226.12,64.5"/><polygon points="239.01,64.5 247.39,56.12 241.85,50.58 235.77,56.66 239.01,64.5"/><polygon points="258.79,60.58 258.79,28.34 250.95,20.5 250.95,20.5 250.95,20.5 250.95,20.5 250.95,60.58 250.95,60.58"/><polygon points="258.79,28.34 270.12,28.34 273.37,20.5 250.95,20.5 250.95,20.5 250.95,20.5 250.95,20.5"/><polygon points="270.12,28.34 275.06,33.27 282.9,30.03 282.9,30.03 282.9,30.03 273.37,20.5 273.37,20.5"/><polygon points="275.06,33.27 275.06,34.25 282.9,37.49 282.9,37.49 282.9,30.03 282.9,30.03"/><polygon points="275.06,34.25 270.12,39.18 273.37,47.02 282.9,37.49 282.9,37.49 282.9,37.49"/><polygon points="270.12,39.18 254.87,39.18 254.87,47.02 273.37,47.02"/><polygon points="264.8,45.17 275.65,62.65 282.31,58.52 271.46,41.04"/><polygon points="286,26.64 302.49,50.62 302.49,36.79 292.45,22.2"/><polygon points="302.49,50.62 318.98,26.64 312.52,22.2 302.49,36.79"/><polygon points="298.57,43.71 298.57,60.58 306.4,60.58 306.4,43.71"/><polygon points="352.87,28.28 345.1,20.5 345.1,20.5 345.1,20.5 341.85,28.34 347.33,33.82"/><polygon points="345.1,20.5 331,20.5 334.25,28.34 341.85,28.34 345.1,20.5"/><polygon points="331,20.5 322.08,29.43 322.08,29.43 322.08,29.43 329.91,32.67 334.25,28.34 331,20.5"/><polygon points="322.08,29.43 322.08,37.49 329.91,34.25 329.91,32.67 322.08,29.43"/><polygon points="322.08,37.49 331,46.42 334.25,38.58 329.91,34.25 322.08,37.49"/><polygon points="331,46.42 341.85,46.42 345.1,38.58 334.25,38.58"/><polygon points="341.85,46.42 346.18,50.75 354.02,47.51 354.02,47.51 354.02,47.51 345.1,38.58"/><polygon points="346.18,50.75 346.18,52.33 354.02,55.57 354.02,55.57 354.02,47.51 354.02,47.51"/><polygon points="346.18,52.33 341.85,56.66 345.1,64.5 345.1,64.5 354.02,55.57 354.02,55.57 354.02,55.57"/><polygon points="341.85,56.66 334.25,56.66 331,64.5 345.1,64.5"/><polygon points="334.25,56.66 328.76,51.18 323.22,56.72 331,64.5 331,64.5"/><polygon points="357.64,28.34 381.75,28.34 381.75,20.5 381.75,20.5 357.64,20.5 357.64,20.5"/><polygon points="365.77,24.42 365.77,60.58 373.61,60.58 373.61,24.42"/><polygon points="390.25,61.93 399.83,35.8 399.83,20.5 397.09,20.5 382.89,59.23"/><polygon points="399.83,35.8 409.41,61.93 416.77,59.23 402.57,20.5 399.83,20.5"/><polygon points="392.6,52.45 407.06,52.45 407.06,44.61 392.6,44.61"/><polygon points="419.42,24.42 419.42,64.5 419.42,64.5 427.25,56.66 427.25,24.42 419.42,24.42"/><polygon points="443.83,64.5 443.83,56.66 427.25,56.66 419.42,64.5"/><polygon points="478.24,28.28 470.47,20.5 470.47,20.5 470.47,20.5 467.22,28.34 472.7,33.82"/><polygon points="470.47,20.5 456.37,20.5 459.62,28.34 467.22,28.34 470.47,20.5"/><polygon points="456.37,20.5 447.45,29.43 447.45,29.43 447.45,29.43 455.28,32.67 459.62,28.34 456.37,20.5"/><polygon points="447.45,29.43 447.45,37.49 455.28,34.25 455.28,32.67 447.45,29.43"/><polygon points="447.45,37.49 456.37,46.42 459.62,38.58 455.28,34.25 447.45,37.49"/><polygon points="456.37,46.42 467.22,46.42 470.47,38.58 459.62,38.58"/><polygon points="467.22,46.42 471.55,50.75 479.39,47.51 479.39,47.51 479.39,47.51 470.47,38.58"/><polygon points="471.55,50.75 471.55,52.33 479.39,55.57 479.39,55.57 479.39,47.51 479.39,47.51"/><polygon points="471.55,52.33 467.22,56.66 470.47,64.5 470.47,64.5 479.39,55.57 479.39,55.57 479.39,55.57"/><polygon points="467.22,56.66 459.62,56.66 456.37,64.5 470.47,64.5"/><polygon points="459.62,56.66 454.13,51.18 448.59,56.72 456.37,64.5 456.37,64.5"/><polygon points="505.61,28.34 529.72,28.34 529.72,20.5 529.72,20.5 505.61,20.5 505.61,20.5"/><polygon points="513.75,24.42 513.75,60.58 521.58,60.58 521.58,24.42"/><polygon points="546.71,28.34 553.11,28.34 556.36,20.5 543.47,20.5 543.47,20.5"/><polygon points="553.11,28.34 558.05,33.27 565.88,30.03 565.88,30.03 565.88,30.03 556.36,20.5 556.36,20.5"/><polygon points="558.05,33.27 558.05,51.73 565.88,54.97 565.88,54.97 565.88,30.03 565.88,30.03"/><polygon points="558.05,51.73 553.11,56.66 556.36,64.5 556.36,64.5 565.88,54.97 565.88,54.97 565.88,54.97"/><polygon points="553.11,56.66 546.71,56.66 543.47,64.5 556.36,64.5"/><polygon points="546.71,56.66 541.77,51.73 533.94,54.97 533.94,54.97 533.94,54.97 543.47,64.5 543.47,64.5"/><polygon points="541.77,51.73 541.77,33.27 533.94,30.03 533.94,54.97 533.94,54.97"/><polygon points="541.77,33.27 546.71,28.34 543.47,20.5 543.47,20.5 543.47,20.5 533.94,30.03 533.94,30.03"/><polygon points="596.02,60.58 596.02,37.5 590.93,20.5 588.18,20.5 588.18,60.58 588.18,60.58"/><polygon points="596.02,37.5 607.17,54.45 607.17,40.19 594.21,20.5 590.93,20.5"/><polygon points="607.17,54.45 618.32,37.5 623.41,20.5 620.13,20.5 607.17,40.19"/><polygon points="618.32,37.5 618.32,60.58 626.16,60.58 626.16,60.58 626.16,20.5 626.16,20.5 623.41,20.5"/><polygon points="636.16,61.93 645.75,35.8 645.75,20.5 643.01,20.5 628.81,59.23"/><polygon points="645.75,35.8 655.33,61.93 662.69,59.23 648.48,20.5 645.75,20.5"/><polygon points="638.51,52.45 652.98,52.45 652.98,44.61 638.51,44.61"/><polygon points="665.34,24.42 665.34,60.58 665.34,60.58 673.17,60.58 673.17,24.42 665.34,24.42"/><polygon points="690.67,21.57 668.37,42.67 673.75,48.36 696.06,27.26"/><polygon points="676.17,40.35 690.04,62.65 696.69,58.51 682.83,36.21"/><polygon points="725.31,20.5 699.69,20.5 699.69,20.5 699.69,20.5 699.69,20.5 707.53,28.34 725.31,28.34 725.31,20.5"/><polygon points="699.69,20.5 699.69,20.5 699.69,64.5 699.69,64.5 707.53,56.66 707.53,28.34 699.69,20.5 699.69,20.5"/><polygon points="725.31,64.5 725.31,56.66 707.53,56.66 699.69,64.5"/><polygon points="703.61,46.42 721.69,46.42 721.69,38.58 703.61,38.58"/></g></mask></defs><rect x="-10000" y="-10000" width="20000" height="20000" fill="#fff" opacity="0.31" mask="url(#hintjoin2crystalstvL)"/><rect x="-10000" y="-10000" width="20000" height="20000" fill="#000" opacity="0.13" mask="url(#hintjoin2crystalstvD)"/></svg>
