<svg xmlns="http://www.w3.org/2000/svg" width="180" height="132" viewBox="0 0 180 132"><defs><filter id="taganswercrystalfractions" x="-50%" y="-50%" width="200%" height="200%"><feGaussianBlur stdDeviation="4.28"/></filter><filter id="taganswercrystalfractionh" x="-10%" y="-10%" width="120%" height="120%"><feGaussianBlur stdDeviation="1"/></filter><linearGradient id="taganswercrystalfractiong" x1="5" y1="0" x2="69" y2="0" gradientUnits="userSpaceOnUse"><stop offset="0" stop-color="#fff" stop-opacity="0"/><stop offset="0.25" stop-color="#fff" stop-opacity="0.16"/><stop offset="0.5" stop-color="#fff" stop-opacity="0.5"/><stop offset="0.75" stop-color="#fff" stop-opacity="0.84"/><stop offset="1" stop-color="#fff" stop-opacity="1"/></linearGradient><mask id="taganswercrystalfractionm" maskUnits="userSpaceOnUse" x="-10000" y="-10000" width="20000" height="20000"><rect x="-10000" y="-10000" width="20000" height="20000" fill="url(#taganswercrystalfractiong)"/></mask></defs><g><g mask="url(#taganswercrystalfractionm)"><polygon points="5,5 27.86,5.18 50.71,4.63 73.57,4.68 96.43,5.22 119.29,4.91 142.14,4.57 165,5 165.12,27.4 164.72,49.8 165.04,72.2 164.72,94.6 165,117 142.14,116.52 119.29,117.15 96.43,117.09 73.57,116.89 50.71,116.79 27.86,116.51 5,117 4.62,94.6 4.82,72.2 4.73,49.8 5.03,27.4" transform="translate(3.67 3.67)" fill="#000" opacity="0.15" filter="url(#taganswercrystalfractions)"/></g><polygon points="5,5 27.86,5.18 50.71,4.63 73.57,4.68 96.43,5.22 119.29,4.91 142.14,4.57 165,5 165.12,27.4 164.72,49.8 165.04,72.2 164.72,94.6 165,117 142.14,116.52 119.29,117.15 96.43,117.09 73.57,116.89 50.71,116.79 27.86,116.51 5,117 4.62,94.6 4.82,72.2 4.73,49.8 5.03,27.4" transform="translate(0 -1.2)" fill="#000" opacity="0.04" filter="url(#taganswercrystalfractionh)"/></g><polygon points="5,5 27.86,5.18 50.71,4.63 73.57,4.68 96.43,5.22 119.29,4.91 142.14,4.57 165,5 165.12,27.4 164.72,49.8 165.04,72.2 164.72,94.6 165,117 142.14,116.52 119.29,117.15 96.43,117.09 73.57,116.89 50.71,116.79 27.86,116.51 5,117 4.62,94.6 4.82,72.2 4.73,49.8 5.03,27.4" fill="#FFFDF8"/></svg>
