<svg xmlns="http://www.w3.org/2000/svg" width="430" height="160" viewBox="0 0 430 160"><defs><filter id="buttonplays" x="-50%" y="-50%" width="200%" height="200%"><feGaussianBlur stdDeviation="7"/></filter><filter id="buttonplayh" x="-10%" y="-10%" width="120%" height="120%"><feGaussianBlur stdDeviation="1.5"/></filter><linearGradient id="buttonplayg" x1="7" y1="0" x2="167" y2="0" gradientUnits="userSpaceOnUse"><stop offset="0" stop-color="#fff" stop-opacity="0"/><stop offset="0.25" stop-color="#fff" stop-opacity="0.16"/><stop offset="0.5" stop-color="#fff" stop-opacity="0.5"/><stop offset="0.75" stop-color="#fff" stop-opacity="0.84"/><stop offset="1" stop-color="#fff" stop-opacity="1"/></linearGradient><mask id="buttonplaym" maskUnits="userSpaceOnUse" x="-10000" y="-10000" width="20000" height="20000"><rect x="-10000" y="-10000" width="20000" height="20000" fill="url(#buttonplayg)"/></mask></defs><g mask="url(#buttonplaym)"><polygon points="7,10 29.22,10.01 51.44,9.59 73.67,10.29 95.89,10.1 118.11,9.78 140.33,9.73 162.56,9.85 184.78,10.03 207,9.78 229.22,10 251.44,10.19 273.67,10.23 295.89,10.1 318.11,10.43 340.33,10.26 362.56,9.61 384.78,9.55 407,10 407.24,30.33 406.9,50.67 407.16,71 406.86,91.33 407.27,111.67 407,132 384.78,131.96 362.56,131.72 340.33,131.75 318.11,131.73 295.89,132.16 273.67,132.48 251.44,132.2 229.22,132.4 207,131.84 184.78,132.19 162.56,132.22 140.33,132.08 118.11,132.22 95.89,132.02 73.67,132.12 51.44,132.16 29.22,132.44 7,132 6.5,111.67 7.15,91.33 7.06,71 7.1,50.67 6.82,30.33" transform="translate(6 6)" fill="#000" opacity="0.18" filter="url(#buttonplays)"/></g><polygon points="7,10 29.22,10.01 51.44,9.59 73.67,10.29 95.89,10.1 118.11,9.78 140.33,9.73 162.56,9.85 184.78,10.03 207,9.78 229.22,10 251.44,10.19 273.67,10.23 295.89,10.1 318.11,10.43 340.33,10.26 362.56,9.61 384.78,9.55 407,10 407.24,30.33 406.9,50.67 407.16,71 406.86,91.33 407.27,111.67 407,132 384.78,131.96 362.56,131.72 340.33,131.75 318.11,131.73 295.89,132.16 273.67,132.48 251.44,132.2 229.22,132.4 207,131.84 184.78,132.19 162.56,132.22 140.33,132.08 118.11,132.22 95.89,132.02 73.67,132.12 51.44,132.16 29.22,132.44 7,132 6.5,111.67 7.15,91.33 7.06,71 7.1,50.67 6.82,30.33" transform="translate(0 -1.2)" fill="#000" opacity="0.035" filter="url(#buttonplayh)"/><polygon points="7,10 29.22,10.01 51.44,9.59 73.67,10.29 95.89,10.1 118.11,9.78 140.33,9.73 162.56,9.85 184.78,10.03 207,9.78 229.22,10 251.44,10.19 273.67,10.23 295.89,10.1 318.11,10.43 340.33,10.26 362.56,9.61 384.78,9.55 407,10 407.24,30.33 406.9,50.67 407.16,71 406.86,91.33 407.27,111.67 407,132 384.78,131.96 362.56,131.72 340.33,131.75 318.11,131.73 295.89,132.16 273.67,132.48 251.44,132.2 229.22,132.4 207,131.84 184.78,132.19 162.56,132.22 140.33,132.08 118.11,132.22 95.89,132.02 73.67,132.12 51.44,132.16 29.22,132.44 7,132 6.5,111.67 7.15,91.33 7.06,71 7.1,50.67 6.82,30.33" fill="#5DB85B"/><defs><linearGradient id="buttonplayl" x1="7" y1="0" x2="407" y2="0" gradientUnits="userSpaceOnUse"><stop offset="0.25" stop-color="#fff" stop-opacity="0"/><stop offset="1" stop-color="#fff" stop-opacity="0.045"/></linearGradient></defs><polygon points="7,10 29.22,10.01 51.44,9.59 73.67,10.29 95.89,10.1 118.11,9.78 140.33,9.73 162.56,9.85 184.78,10.03 207,9.78 229.22,10 251.44,10.19 273.67,10.23 295.89,10.1 318.11,10.43 340.33,10.26 362.56,9.61 384.78,9.55 407,10 407.24,30.33 406.9,50.67 407.16,71 406.86,91.33 407.27,111.67 407,132 384.78,131.96 362.56,131.72 340.33,131.75 318.11,131.73 295.89,132.16 273.67,132.48 251.44,132.2 229.22,132.4 207,131.84 184.78,132.19 162.56,132.22 140.33,132.08 118.11,132.22 95.89,132.02 73.67,132.12 51.44,132.16 29.22,132.44 7,132 6.5,111.67 7.15,91.33 7.06,71 7.1,50.67 6.82,30.33" fill="url(#buttonplayl)"/><defs><g id="buttonplayc" stroke-width="0.29" stroke-linejoin="round"><polygon points="72.5,44.07 116.85,71 72.5,97.93"/></g><filter id="buttonplaycb" x="-10%" y="-10%" width="120%" height="130%"><feGaussianBlur stdDeviation="0.7"/></filter></defs><use href="#buttonplayc" x="2" y="2" fill="#4A9349" stroke="#4A9349" filter="url(#buttonplaycb)"/><use href="#buttonplayc" x="1.27" y="1.27" fill="#F6E3C0" stroke="#F6E3C0"/><use href="#buttonplayc" x="0" y="0" fill="#FFF8EC" stroke="#FFF8EC"/><defs><g id="buttonplayt" stroke-width="0.29" stroke-linejoin="round"><polygon points="163.95,100.59 163.95,47.82 151.13,35 151.13,35 151.13,35 151.13,35 151.13,100.59 151.13,100.59"/><polygon points="163.95,47.82 182.5,47.82 187.81,35 151.13,35 151.13,35 151.13,35 151.13,35"/><polygon points="182.5,47.82 190.58,55.9 203.4,50.59 203.4,50.59 203.4,50.59 187.81,35 187.81,35"/><polygon points="190.58,55.9 190.58,60.45 203.4,65.77 203.4,65.77 203.4,50.59 203.4,50.59"/><polygon points="190.58,60.45 182.5,68.53 187.81,81.36 203.4,65.77 203.4,65.77 203.4,65.77"/><polygon points="182.5,68.53 157.54,68.53 157.54,81.36 187.81,81.36"/><polygon points="207.35,41.41 207.35,107 207.35,107 220.17,94.18 220.17,41.41 207.35,41.41"/><polygon points="247.29,107 247.29,94.18 220.17,94.18 207.35,107"/><polygon points="266.62,102.8 282.3,60.03 282.3,35 277.83,35 254.59,98.38"/><polygon points="282.3,60.03 297.98,102.8 310.02,98.38 286.78,35 282.3,35"/><polygon points="270.47,87.27 294.14,87.27 294.14,74.45 270.47,74.45"/><polygon points="308.58,45.04 335.56,84.29 335.56,61.66 319.15,37.78"/><polygon points="335.56,84.29 362.55,45.04 351.98,37.78 335.56,61.66"/><polygon points="329.15,72.97 329.15,100.59 341.98,100.59 341.98,72.97"/></g><filter id="buttonplaytb" x="-10%" y="-10%" width="120%" height="130%"><feGaussianBlur stdDeviation="0.7"/></filter></defs><use href="#buttonplayt" x="2" y="2" fill="#4A9349" stroke="#4A9349" filter="url(#buttonplaytb)"/><use href="#buttonplayt" x="1.27" y="1.27" fill="#F6E3C0" stroke="#F6E3C0"/><use href="#buttonplayt" x="0" y="0" fill="#FFF8EC" stroke="#FFF8EC"/></svg>
