<svg xmlns="http://www.w3.org/2000/svg" width="380" height="160" viewBox="0 0 380 160"><defs><filter id="buttonyesoffs" x="-50%" y="-50%" width="200%" height="200%"><feGaussianBlur stdDeviation="7"/></filter><filter id="buttonyesoffh" x="-10%" y="-10%" width="120%" height="120%"><feGaussianBlur stdDeviation="1.5"/></filter><linearGradient id="buttonyesoffg" x1="7" y1="0" x2="146.6" y2="0" gradientUnits="userSpaceOnUse"><stop offset="0" stop-color="#fff" stop-opacity="0"/><stop offset="0.25" stop-color="#fff" stop-opacity="0.16"/><stop offset="0.5" stop-color="#fff" stop-opacity="0.5"/><stop offset="0.75" stop-color="#fff" stop-opacity="0.84"/><stop offset="1" stop-color="#fff" stop-opacity="1"/></linearGradient><mask id="buttonyesoffm" maskUnits="userSpaceOnUse" x="-10000" y="-10000" width="20000" height="20000"><rect x="-10000" y="-10000" width="20000" height="20000" fill="url(#buttonyesoffg)"/></mask></defs><mask id="buttonyesoffx" maskUnits="userSpaceOnUse" x="-10000" y="-10000" width="20000" height="20000"><rect x="-10000" y="-10000" width="20000" height="20000" fill="#fff"/><g fill="#000"><polygon points="7,10 28.81,10.49 50.63,9.87 72.44,10.13 94.25,9.79 116.06,9.76 137.88,9.63 159.69,9.83 181.5,9.78 203.31,9.64 225.13,10.14 246.94,9.52 268.75,9.85 290.56,9.7 312.38,10.18 334.19,10.01 356,10 356.09,30.33 356.32,50.67 355.55,71 355.71,91.33 355.54,111.67 356,132 334.19,132.34 312.38,131.76 290.56,132.15 268.75,132.27 246.94,132.45 225.13,132.45 203.31,131.92 181.5,132.23 159.69,132.06 137.88,132.11 116.06,132.08 94.25,131.67 72.44,132.25 50.63,131.75 28.81,131.86 7,132 7.45,111.67 6.91,91.33 6.9,71 6.97,50.67 7.42,30.33"/></g></mask><g mask="url(#buttonyesoffx)"><g mask="url(#buttonyesoffm)"><polygon points="7,10 28.81,10.49 50.63,9.87 72.44,10.13 94.25,9.79 116.06,9.76 137.88,9.63 159.69,9.83 181.5,9.78 203.31,9.64 225.13,10.14 246.94,9.52 268.75,9.85 290.56,9.7 312.38,10.18 334.19,10.01 356,10 356.09,30.33 356.32,50.67 355.55,71 355.71,91.33 355.54,111.67 356,132 334.19,132.34 312.38,131.76 290.56,132.15 268.75,132.27 246.94,132.45 225.13,132.45 203.31,131.92 181.5,132.23 159.69,132.06 137.88,132.11 116.06,132.08 94.25,131.67 72.44,132.25 50.63,131.75 28.81,131.86 7,132 7.45,111.67 6.91,91.33 6.9,71 6.97,50.67 7.42,30.33" transform="translate(6 6)" fill="#000" opacity="0.07" filter="url(#buttonyesoffs)"/></g><polygon points="7,10 28.81,10.49 50.63,9.87 72.44,10.13 94.25,9.79 116.06,9.76 137.88,9.63 159.69,9.83 181.5,9.78 203.31,9.64 225.13,10.14 246.94,9.52 268.75,9.85 290.56,9.7 312.38,10.18 334.19,10.01 356,10 356.09,30.33 356.32,50.67 355.55,71 355.71,91.33 355.54,111.67 356,132 334.19,132.34 312.38,131.76 290.56,132.15 268.75,132.27 246.94,132.45 225.13,132.45 203.31,131.92 181.5,132.23 159.69,132.06 137.88,132.11 116.06,132.08 94.25,131.67 72.44,132.25 50.63,131.75 28.81,131.86 7,132 7.45,111.67 6.91,91.33 6.9,71 6.97,50.67 7.42,30.33" transform="translate(0 -1.2)" fill="#000" opacity="0.02" filter="url(#buttonyesoffh)"/></g><polygon points="7,10 28.81,10.49 50.63,9.87 72.44,10.13 94.25,9.79 116.06,9.76 137.88,9.63 159.69,9.83 181.5,9.78 203.31,9.64 225.13,10.14 246.94,9.52 268.75,9.85 290.56,9.7 312.38,10.18 334.19,10.01 356,10 356.09,30.33 356.32,50.67 355.55,71 355.71,91.33 355.54,111.67 356,132 334.19,132.34 312.38,131.76 290.56,132.15 268.75,132.27 246.94,132.45 225.13,132.45 203.31,131.92 181.5,132.23 159.69,132.06 137.88,132.11 116.06,132.08 94.25,131.67 72.44,132.25 50.63,131.75 28.81,131.86 7,132 7.45,111.67 6.91,91.33 6.9,71 6.97,50.67 7.42,30.33" fill="#fff" opacity="0.03"/><defs><mask id="buttonyesoffsvL" maskUnits="userSpaceOnUse" x="-10000" y="-10000" width="20000" height="20000"><g fill="#fff"><polygon points="7,10 28.81,10.49 50.63,9.87 72.44,10.13 94.25,9.79 116.06,9.76 137.88,9.63 159.69,9.83 181.5,9.78 203.31,9.64 225.13,10.14 246.94,9.52 268.75,9.85 290.56,9.7 312.38,10.18 334.19,10.01 356,10 356.09,30.33 356.32,50.67 355.55,71 355.71,91.33 355.54,111.67 356,132 334.19,132.34 312.38,131.76 290.56,132.15 268.75,132.27 246.94,132.45 225.13,132.45 203.31,131.92 181.5,132.23 159.69,132.06 137.88,132.11 116.06,132.08 94.25,131.67 72.44,132.25 50.63,131.75 28.81,131.86 7,132 7.45,111.67 6.91,91.33 6.9,71 6.97,50.67 7.42,30.33"/></g><g fill="#000" transform="translate(2.5 2.5)"><polygon points="7,10 28.81,10.49 50.63,9.87 72.44,10.13 94.25,9.79 116.06,9.76 137.88,9.63 159.69,9.83 181.5,9.78 203.31,9.64 225.13,10.14 246.94,9.52 268.75,9.85 290.56,9.7 312.38,10.18 334.19,10.01 356,10 356.09,30.33 356.32,50.67 355.55,71 355.71,91.33 355.54,111.67 356,132 334.19,132.34 312.38,131.76 290.56,132.15 268.75,132.27 246.94,132.45 225.13,132.45 203.31,131.92 181.5,132.23 159.69,132.06 137.88,132.11 116.06,132.08 94.25,131.67 72.44,132.25 50.63,131.75 28.81,131.86 7,132 7.45,111.67 6.91,91.33 6.9,71 6.97,50.67 7.42,30.33"/></g></mask><mask id="buttonyesoffsvD" maskUnits="userSpaceOnUse" x="-10000" y="-10000" width="20000" height="20000"><g fill="#fff"><polygon points="7,10 28.81,10.49 50.63,9.87 72.44,10.13 94.25,9.79 116.06,9.76 137.88,9.63 159.69,9.83 181.5,9.78 203.31,9.64 225.13,10.14 246.94,9.52 268.75,9.85 290.56,9.7 312.38,10.18 334.19,10.01 356,10 356.09,30.33 356.32,50.67 355.55,71 355.71,91.33 355.54,111.67 356,132 334.19,132.34 312.38,131.76 290.56,132.15 268.75,132.27 246.94,132.45 225.13,132.45 203.31,131.92 181.5,132.23 159.69,132.06 137.88,132.11 116.06,132.08 94.25,131.67 72.44,132.25 50.63,131.75 28.81,131.86 7,132 7.45,111.67 6.91,91.33 6.9,71 6.97,50.67 7.42,30.33"/></g><g fill="#000" transform="translate(-2.5 -2.5)"><polygon points="7,10 28.81,10.49 50.63,9.87 72.44,10.13 94.25,9.79 116.06,9.76 137.88,9.63 159.69,9.83 181.5,9.78 203.31,9.64 225.13,10.14 246.94,9.52 268.75,9.85 290.56,9.7 312.38,10.18 334.19,10.01 356,10 356.09,30.33 356.32,50.67 355.55,71 355.71,91.33 355.54,111.67 356,132 334.19,132.34 312.38,131.76 290.56,132.15 268.75,132.27 246.94,132.45 225.13,132.45 203.31,131.92 181.5,132.23 159.69,132.06 137.88,132.11 116.06,132.08 94.25,131.67 72.44,132.25 50.63,131.75 28.81,131.86 7,132 7.45,111.67 6.91,91.33 6.9,71 6.97,50.67 7.42,30.33"/></g></mask></defs><rect x="-10000" y="-10000" width="20000" height="20000" fill="#fff" opacity="0.31" mask="url(#buttonyesoffsvL)"/><rect x="-10000" y="-10000" width="20000" height="20000" fill="#000" opacity="0.08" mask="url(#buttonyesoffsvD)"/><defs><g id="buttonyesoffc" stroke-width="0.29" stroke-linejoin="round"><polygon points="60.81,76.5 78.23,93.93 86.07,86.09 68.65,68.66"/><polygon points="86.16,93.84 121,57.41 112.99,49.74 78.14,86.18"/><polygon points="87.69,92.3 84.45,95.55 79.85,95.55 76.61,92.3 76.61,87.71 79.85,84.46 84.45,84.46 87.69,87.71"/></g><filter id="buttonyesoffcb" x="-10%" y="-10%" width="120%" height="130%"><feGaussianBlur stdDeviation="0.7"/></filter></defs><defs><mask id="buttonyesoffco" maskUnits="userSpaceOnUse" x="-10000" y="-10000" width="20000" height="20000"><rect x="-10000" y="-10000" width="20000" height="20000" fill="#fff"/><g fill="#000"><polygon points="60.81,76.5 78.23,93.93 86.07,86.09 68.65,68.66"/><polygon points="86.16,93.84 121,57.41 112.99,49.74 78.14,86.18"/><polygon points="87.69,92.3 84.45,95.55 79.85,95.55 76.61,92.3 76.61,87.71 79.85,84.46 84.45,84.46 87.69,87.71"/></g></mask></defs><g mask="url(#buttonyesoffco)"><use href="#buttonyesoffc" x="2" y="2" fill="#000" stroke="#000" filter="url(#buttonyesoffcb)" opacity="0.06"/></g><g fill="#fff"><polygon opacity="0.01" points="60.81,76.5 78.23,93.93 86.07,86.09 68.65,68.66"/><polygon opacity="0.01" points="86.16,93.84 121,57.41 112.99,49.74 78.14,86.18"/><polygon opacity="0.01" points="87.69,92.3 84.45,95.55 79.85,95.55 76.61,92.3 76.61,87.71 79.85,84.46 84.45,84.46 87.69,87.71"/></g><defs><mask id="buttonyesoffcvL" maskUnits="userSpaceOnUse" x="-10000" y="-10000" width="20000" height="20000"><g fill="#fff"><polygon points="60.81,76.5 78.23,93.93 86.07,86.09 68.65,68.66"/><polygon points="86.16,93.84 121,57.41 112.99,49.74 78.14,86.18"/><polygon points="87.69,92.3 84.45,95.55 79.85,95.55 76.61,92.3 76.61,87.71 79.85,84.46 84.45,84.46 87.69,87.71"/></g><g fill="#000" transform="translate(2 2)"><polygon points="60.81,76.5 78.23,93.93 86.07,86.09 68.65,68.66"/><polygon points="86.16,93.84 121,57.41 112.99,49.74 78.14,86.18"/><polygon points="87.69,92.3 84.45,95.55 79.85,95.55 76.61,92.3 76.61,87.71 79.85,84.46 84.45,84.46 87.69,87.71"/></g></mask><mask id="buttonyesoffcvD" maskUnits="userSpaceOnUse" x="-10000" y="-10000" width="20000" height="20000"><g fill="#fff"><polygon points="60.81,76.5 78.23,93.93 86.07,86.09 68.65,68.66"/><polygon points="86.16,93.84 121,57.41 112.99,49.74 78.14,86.18"/><polygon points="87.69,92.3 84.45,95.55 79.85,95.55 76.61,92.3 76.61,87.71 79.85,84.46 84.45,84.46 87.69,87.71"/></g><g fill="#000" transform="translate(-2 -2)"><polygon points="60.81,76.5 78.23,93.93 86.07,86.09 68.65,68.66"/><polygon points="86.16,93.84 121,57.41 112.99,49.74 78.14,86.18"/><polygon points="87.69,92.3 84.45,95.55 79.85,95.55 76.61,92.3 76.61,87.71 79.85,84.46 84.45,84.46 87.69,87.71"/></g></mask></defs><rect x="-10000" y="-10000" width="20000" height="20000" fill="#fff" opacity="0.15" mask="url(#buttonyesoffcvL)"/><rect x="-10000" y="-10000" width="20000" height="20000" fill="#000" opacity="0.06" mask="url(#buttonyesoffcvD)"/><defs><g id="buttonyesofft" stroke-width="0.29" stroke-linejoin="round"><polygon points="152.4,45.04 179.38,84.29 179.38,61.66 162.96,37.78"/><polygon points="179.38,84.29 206.36,45.04 195.8,37.78 179.38,61.66"/><polygon points="172.97,72.97 172.97,100.59 185.79,100.59 185.79,72.97"/><polygon points="253.35,35 211.43,35 211.43,35 211.43,35 211.43,35 224.26,47.82 253.35,47.82 253.35,35"/><polygon points="211.43,35 211.43,35 211.43,107 211.43,107 224.26,94.18 224.26,47.82 211.43,35 211.43,35"/><polygon points="253.35,107 253.35,94.18 224.26,94.18 211.43,107"/><polygon points="217.85,77.41 247.43,77.41 247.43,64.59 217.85,64.59"/><polygon points="310.65,47.73 297.93,35 297.93,35 297.93,35 292.61,47.82 301.59,56.79"/><polygon points="297.93,35 274.86,35 280.17,47.82 292.61,47.82 297.93,35"/><polygon points="274.86,35 260.26,49.6 260.26,49.6 260.26,49.6 273.08,54.92 280.17,47.82 274.86,35"/><polygon points="260.26,49.6 260.26,62.81 273.08,57.5 273.08,54.92 260.26,49.6"/><polygon points="260.26,62.81 274.86,77.41 280.17,64.59 273.08,57.5 260.26,62.81"/><polygon points="274.86,77.41 292.61,77.41 297.93,64.59 280.17,64.59"/><polygon points="292.61,77.41 299.71,84.5 312.53,79.19 312.53,79.19 312.53,79.19 297.93,64.59"/><polygon points="299.71,84.5 299.71,87.08 312.53,92.4 312.53,92.4 312.53,79.19 312.53,79.19"/><polygon points="299.71,87.08 292.61,94.18 297.93,107 297.93,107 312.53,92.4 312.53,92.4 312.53,92.4"/><polygon points="292.61,94.18 280.17,94.18 274.86,107 297.93,107"/><polygon points="280.17,94.18 271.2,85.21 262.13,94.27 274.86,107 274.86,107"/></g><filter id="buttonyesofftb" x="-10%" y="-10%" width="120%" height="130%"><feGaussianBlur stdDeviation="0.7"/></filter></defs><defs><mask id="buttonyesoffto" maskUnits="userSpaceOnUse" x="-10000" y="-10000" width="20000" height="20000"><rect x="-10000" y="-10000" width="20000" height="20000" fill="#fff"/><g fill="#000"><polygon points="152.4,45.04 179.38,84.29 179.38,61.66 162.96,37.78"/><polygon points="179.38,84.29 206.36,45.04 195.8,37.78 179.38,61.66"/><polygon points="172.97,72.97 172.97,100.59 185.79,100.59 185.79,72.97"/><polygon points="253.35,35 211.43,35 211.43,35 211.43,35 211.43,35 224.26,47.82 253.35,47.82 253.35,35"/><polygon points="211.43,35 211.43,35 211.43,107 211.43,107 224.26,94.18 224.26,47.82 211.43,35 211.43,35"/><polygon points="253.35,107 253.35,94.18 224.26,94.18 211.43,107"/><polygon points="217.85,77.41 247.43,77.41 247.43,64.59 217.85,64.59"/><polygon points="310.65,47.73 297.93,35 297.93,35 297.93,35 292.61,47.82 301.59,56.79"/><polygon points="297.93,35 274.86,35 280.17,47.82 292.61,47.82 297.93,35"/><polygon points="274.86,35 260.26,49.6 260.26,49.6 260.26,49.6 273.08,54.92 280.17,47.82 274.86,35"/><polygon points="260.26,49.6 260.26,62.81 273.08,57.5 273.08,54.92 260.26,49.6"/><polygon points="260.26,62.81 274.86,77.41 280.17,64.59 273.08,57.5 260.26,62.81"/><polygon points="274.86,77.41 292.61,77.41 297.93,64.59 280.17,64.59"/><polygon points="292.61,77.41 299.71,84.5 312.53,79.19 312.53,79.19 312.53,79.19 297.93,64.59"/><polygon points="299.71,84.5 299.71,87.08 312.53,92.4 312.53,92.4 312.53,79.19 312.53,79.19"/><polygon points="299.71,87.08 292.61,94.18 297.93,107 297.93,107 312.53,92.4 312.53,92.4 312.53,92.4"/><polygon points="292.61,94.18 280.17,94.18 274.86,107 297.93,107"/><polygon points="280.17,94.18 271.2,85.21 262.13,94.27 274.86,107 274.86,107"/></g></mask></defs><g mask="url(#buttonyesoffto)"><use href="#buttonyesofft" x="2" y="2" fill="#000" stroke="#000" filter="url(#buttonyesofftb)" opacity="0.06"/></g><g fill="#fff"><polygon opacity="0.01" points="152.4,45.04 179.38,84.29 179.38,61.66 162.96,37.78"/><polygon opacity="0.01" points="179.38,84.29 206.36,45.04 195.8,37.78 179.38,61.66"/><polygon opacity="0.01" points="172.97,72.97 172.97,100.59 185.79,100.59 185.79,72.97"/><polygon opacity="0.01" points="253.35,35 211.43,35 211.43,35 211.43,35 211.43,35 224.26,47.82 253.35,47.82 253.35,35"/><polygon opacity="0.01" points="211.43,35 211.43,35 211.43,107 211.43,107 224.26,94.18 224.26,47.82 211.43,35 211.43,35"/><polygon opacity="0.01" points="253.35,107 253.35,94.18 224.26,94.18 211.43,107"/><polygon opacity="0.01" points="217.85,77.41 247.43,77.41 247.43,64.59 217.85,64.59"/><polygon opacity="0.01" points="310.65,47.73 297.93,35 297.93,35 297.93,35 292.61,47.82 301.59,56.79"/><polygon opacity="0.01" points="297.93,35 274.86,35 280.17,47.82 292.61,47.82 297.93,35"/><polygon opacity="0.01" points="274.86,35 260.26,49.6 260.26,49.6 260.26,49.6 273.08,54.92 280.17,47.82 274.86,35"/><polygon opacity="0.01" points="260.26,49.6 260.26,62.81 273.08,57.5 273.08,54.92 260.26,49.6"/><polygon opacity="0.01" points="260.26,62.81 274.86,77.41 280.17,64.59 273.08,57.5 260.26,62.81"/><polygon opacity="0.01" points="274.86,77.41 292.61,77.41 297.93,64.59 280.17,64.59"/><polygon opacity="0.01" points="292.61,77.41 299.71,84.5 312.53,79.19 312.53,79.19 312.53,79.19 297.93,64.59"/><polygon opacity="0.01" points="299.71,84.5 299.71,87.08 312.53,92.4 312.53,92.4 312.53,79.19 312.53,79.19"/><polygon opacity="0.01" points="299.71,87.08 292.61,94.18 297.93,107 297.93,107 312.53,92.4 312.53,92.4 312.53,92.4"/><polygon opacity="0.01" points="292.61,94.18 280.17,94.18 274.86,107 297.93,107"/><polygon opacity="0.01" points="280.17,94.18 271.2,85.21 262.13,94.27 274.86,107 274.86,107"/></g><defs><mask id="buttonyesofftvL" maskUnits="userSpaceOnUse" x="-10000" y="-10000" width="20000" height="20000"><g fill="#fff"><polygon points="152.4,45.04 179.38,84.29 179.38,61.66 162.96,37.78"/><polygon points="179.38,84.29 206.36,45.04 195.8,37.78 179.38,61.66"/><polygon points="172.97,72.97 172.97,100.59 185.79,100.59 185.79,72.97"/><polygon points="253.35,35 211.43,35 211.43,35 211.43,35 211.43,35 224.26,47.82 253.35,47.82 253.35,35"/><polygon points="211.43,35 211.43,35 211.43,107 211.43,107 224.26,94.18 224.26,47.82 211.43,35 211.43,35"/><polygon points="253.35,107 253.35,94.18 224.26,94.18 211.43,107"/><polygon points="217.85,77.41 247.43,77.41 247.43,64.59 217.85,64.59"/><polygon points="310.65,47.73 297.93,35 297.93,35 297.93,35 292.61,47.82 301.59,56.79"/><polygon points="297.93,35 274.86,35 280.17,47.82 292.61,47.82 297.93,35"/><polygon points="274.86,35 260.26,49.6 260.26,49.6 260.26,49.6 273.08,54.92 280.17,47.82 274.86,35"/><polygon points="260.26,49.6 260.26,62.81 273.08,57.5 273.08,54.92 260.26,49.6"/><polygon points="260.26,62.81 274.86,77.41 280.17,64.59 273.08,57.5 260.26,62.81"/><polygon points="274.86,77.41 292.61,77.41 297.93,64.59 280.17,64.59"/><polygon points="292.61,77.41 299.71,84.5 312.53,79.19 312.53,79.19 312.53,79.19 297.93,64.59"/><polygon points="299.71,84.5 299.71,87.08 312.53,92.4 312.53,92.4 312.53,79.19 312.53,79.19"/><polygon points="299.71,87.08 292.61,94.18 297.93,107 297.93,107 312.53,92.4 312.53,92.4 312.53,92.4"/><polygon points="292.61,94.18 280.17,94.18 274.86,107 297.93,107"/><polygon points="280.17,94.18 271.2,85.21 262.13,94.27 274.86,107 274.86,107"/></g><g fill="#000" transform="translate(2 2)"><polygon points="152.4,45.04 179.38,84.29 179.38,61.66 162.96,37.78"/><polygon points="179.38,84.29 206.36,45.04 195.8,37.78 179.38,61.66"/><polygon points="172.97,72.97 172.97,100.59 185.79,100.59 185.79,72.97"/><polygon points="253.35,35 211.43,35 211.43,35 211.43,35 211.43,35 224.26,47.82 253.35,47.82 253.35,35"/><polygon points="211.43,35 211.43,35 211.43,107 211.43,107 224.26,94.18 224.26,47.82 211.43,35 211.43,35"/><polygon points="253.35,107 253.35,94.18 224.26,94.18 211.43,107"/><polygon points="217.85,77.41 247.43,77.41 247.43,64.59 217.85,64.59"/><polygon points="310.65,47.73 297.93,35 297.93,35 297.93,35 292.61,47.82 301.59,56.79"/><polygon points="297.93,35 274.86,35 280.17,47.82 292.61,47.82 297.93,35"/><polygon points="274.86,35 260.26,49.6 260.26,49.6 260.26,49.6 273.08,54.92 280.17,47.82 274.86,35"/><polygon points="260.26,49.6 260.26,62.81 273.08,57.5 273.08,54.92 260.26,49.6"/><polygon points="260.26,62.81 274.86,77.41 280.17,64.59 273.08,57.5 260.26,62.81"/><polygon points="274.86,77.41 292.61,77.41 297.93,64.59 280.17,64.59"/><polygon points="292.61,77.41 299.71,84.5 312.53,79.19 312.53,79.19 312.53,79.19 297.93,64.59"/><polygon points="299.71,84.5 299.71,87.08 312.53,92.4 312.53,92.4 312.53,79.19 312.53,79.19"/><polygon points="299.71,87.08 292.61,94.18 297.93,107 297.93,107 312.53,92.4 312.53,92.4 312.53,92.4"/><polygon points="292.61,94.18 280.17,94.18 274.86,107 297.93,107"/><polygon points="280.17,94.18 271.2,85.21 262.13,94.27 274.86,107 274.86,107"/></g></mask><mask id="buttonyesofftvD" maskUnits="userSpaceOnUse" x="-10000" y="-10000" width="20000" height="20000"><g fill="#fff"><polygon points="152.4,45.04 179.38,84.29 179.38,61.66 162.96,37.78"/><polygon points="179.38,84.29 206.36,45.04 195.8,37.78 179.38,61.66"/><polygon points="172.97,72.97 172.97,100.59 185.79,100.59 185.79,72.97"/><polygon points="253.35,35 211.43,35 211.43,35 211.43,35 211.43,35 224.26,47.82 253.35,47.82 253.35,35"/><polygon points="211.43,35 211.43,35 211.43,107 211.43,107 224.26,94.18 224.26,47.82 211.43,35 211.43,35"/><polygon points="253.35,107 253.35,94.18 224.26,94.18 211.43,107"/><polygon points="217.85,77.41 247.43,77.41 247.43,64.59 217.85,64.59"/><polygon points="310.65,47.73 297.93,35 297.93,35 297.93,35 292.61,47.82 301.59,56.79"/><polygon points="297.93,35 274.86,35 280.17,47.82 292.61,47.82 297.93,35"/><polygon points="274.86,35 260.26,49.6 260.26,49.6 260.26,49.6 273.08,54.92 280.17,47.82 274.86,35"/><polygon points="260.26,49.6 260.26,62.81 273.08,57.5 273.08,54.92 260.26,49.6"/><polygon points="260.26,62.81 274.86,77.41 280.17,64.59 273.08,57.5 260.26,62.81"/><polygon points="274.86,77.41 292.61,77.41 297.93,64.59 280.17,64.59"/><polygon points="292.61,77.41 299.71,84.5 312.53,79.19 312.53,79.19 312.53,79.19 297.93,64.59"/><polygon points="299.71,84.5 299.71,87.08 312.53,92.4 312.53,92.4 312.53,79.19 312.53,79.19"/><polygon points="299.71,87.08 292.61,94.18 297.93,107 297.93,107 312.53,92.4 312.53,92.4 312.53,92.4"/><polygon points="292.61,94.18 280.17,94.18 274.86,107 297.93,107"/><polygon points="280.17,94.18 271.2,85.21 262.13,94.27 274.86,107 274.86,107"/></g><g fill="#000" transform="translate(-2 -2)"><polygon points="152.4,45.04 179.38,84.29 179.38,61.66 162.96,37.78"/><polygon points="179.38,84.29 206.36,45.04 195.8,37.78 179.38,61.66"/><polygon points="172.97,72.97 172.97,100.59 185.79,100.59 185.79,72.97"/><polygon points="253.35,35 211.43,35 211.43,35 211.43,35 211.43,35 224.26,47.82 253.35,47.82 253.35,35"/><polygon points="211.43,35 211.43,35 211.43,107 211.43,107 224.26,94.18 224.26,47.82 211.43,35 211.43,35"/><polygon points="253.35,107 253.35,94.18 224.26,94.18 211.43,107"/><polygon points="217.85,77.41 247.43,77.41 247.43,64.59 217.85,64.59"/><polygon points="310.65,47.73 297.93,35 297.93,35 297.93,35 292.61,47.82 301.59,56.79"/><polygon points="297.93,35 274.86,35 280.17,47.82 292.61,47.82 297.93,35"/><polygon points="274.86,35 260.26,49.6 260.26,49.6 260.26,49.6 273.08,54.92 280.17,47.82 274.86,35"/><polygon points="260.26,49.6 260.26,62.81 273.08,57.5 273.08,54.92 260.26,49.6"/><polygon points="260.26,62.81 274.86,77.41 280.17,64.59 273.08,57.5 260.26,62.81"/><polygon points="274.86,77.41 292.61,77.41 297.93,64.59 280.17,64.59"/><polygon points="292.61,77.41 299.71,84.5 312.53,79.19 312.53,79.19 312.53,79.19 297.93,64.59"/><polygon points="299.71,84.5 299.71,87.08 312.53,92.4 312.53,92.4 312.53,79.19 312.53,79.19"/><polygon points="299.71,87.08 292.61,94.18 297.93,107 297.93,107 312.53,92.4 312.53,92.4 312.53,92.4"/><polygon points="292.61,94.18 280.17,94.18 274.86,107 297.93,107"/><polygon points="280.17,94.18 271.2,85.21 262.13,94.27 274.86,107 274.86,107"/></g></mask></defs><rect x="-10000" y="-10000" width="20000" height="20000" fill="#fff" opacity="0.15" mask="url(#buttonyesofftvL)"/><rect x="-10000" y="-10000" width="20000" height="20000" fill="#000" opacity="0.06" mask="url(#buttonyesofftvD)"/></svg>
